{"accessors":[{"bufferView":0,"componentType":5126,"count":24,"max":[3.674999952316284,0.18000000715255737,3.174999952316284],"min":[-3.674999952316284,-0.18000000715255737,-3.174999952316284],"normalized":false,"type":"VEC3"},{"bufferView":1,"componentType":5126,"count":24,"max":[1.0,0.0,1.0,1.0],"min":[-1.0,-1.5259254723787308e-05,-1.0,1.0],"normalized":false,"type":"VEC4"},{"bufferView":2,"componentType":5126,"count":24,"max":[1.0,1.0,1.0],"min":[-1.0,-1.0,-1.0],"normalized":false,"type":"VEC3"},{"bufferView":3,"componentType":5126,"count":24,"max":[1.0,1.0],"min":[0.0,0.0],"normalized":false,"type":"VEC2"},{"bufferView":4,"componentType":5121,"count":36,"max":[23],"min":[0],"normalized":false,"type":"SCALAR"},{"bufferView":5,"componentType":5126,"count":24,"max":[2.924999952316284,1.9249999523162842,2.5250000953674316],"min":[-2.924999952316284,-1.9249999523162842,-2.5250000953674316],"normalized":false,"type":"VEC3"},{"bufferView":6,"componentType":5126,"count":24,"max":[1.274999976158142,1.774999976158142,0.7749999761581421],"min":[-1.274999976158142,-1.774999976158142,-0.7749999761581421],"normalized":false,"type":"VEC3"},{"bufferView":7,"componentType":5126,"count":24,"max":[1.1399999856948853,0.28999999165534973,0.36000001430511475],"min":[-1.1399999856948853,-0.28999999165534973,-0.36000001430511475],"normalized":false,"type":"VEC3"},{"bufferView":8,"componentType":5126,"count":24,"max":[0.7749999761581421,1.274999976158142,0.20999999344348907],"min":[-0.7749999761581421,-1.274999976158142,-0.20999999344348907],"normalized":false,"type":"VEC3"},{"bufferView":9,"componentType":5126,"count":24,"max":[0.23999999463558197,1.9249999523162842,0.3100000023841858],"min":[-0.23999999463558197,-1.9249999523162842,-0.3100000023841858],"normalized":false,"type":"VEC3"},{"bufferView":10,"componentType":5126,"count":24,"max":[0.1899999976158142,1.725000023841858,0.23999999463558197],"min":[-0.1899999976158142,-1.725000023841858,-0.23999999463558197],"normalized":false,"type":"VEC3"},{"bufferView":11,"componentType":5126,"count":24,"max":[0.574999988079071,0.925000011920929,0.07999999821186066],"min":[-0.574999988079071,-0.925000011920929,-0.07999999821186066],"normalized":false,"type":"VEC3"},{"bufferView":12,"componentType":5126,"count":24,"max":[2.7750000953674316,0.07999999821186066,0.10999999940395355],"min":[-2.7750000953674316,-0.07999999821186066,-0.10999999940395355],"normalized":false,"type":"VEC3"},{"bufferView":13,"componentType":5126,"count":24,"max":[2.674999952316284,0.07000000029802322,0.10000000149011612],"min":[-2.674999952316284,-0.07000000029802322,-0.10000000149011612],"normalized":false,"type":"VEC3"},{"bufferView":14,"componentType":5126,"count":24,"max":[0.14000000059604645,0.4749999940395355,0.07999999821186066],"min":[-0.14000000059604645,-0.4749999940395355,-0.07999999821186066],"normalized":false,"type":"VEC3"},{"bufferView":15,"componentType":5126,"count":24,"max":[0.029999999329447746,0.42500001192092896,0.029999999329447746],"min":[-0.029999999329447746,-0.42500001192092896,-0.029999999329447746],"normalized":false,"type":"VEC3"},{"bufferView":16,"componentType":5126,"count":24,"max":[0.3100000023841858,0.20999999344348907,0.02500000037252903],"min":[-0.3100000023841858,-0.20999999344348907,-0.02500000037252903],"normalized":false,"type":"VEC3"},{"bufferView":17,"componentType":5126,"count":24,"max":[0.07000000029802322,1.274999976158142,0.07000000029802322],"min":[-0.07000000029802322,-1.274999976158142,-0.07000000029802322],"normalized":false,"type":"VEC3"},{"bufferView":18,"componentType":5126,"count":24,"max":[0.8100000023841858,0.11999999731779099,0.11999999731779099],"min":[-0.8100000023841858,-0.11999999731779099,-0.11999999731779099],"normalized":false,"type":"VEC3"},{"bufferView":19,"componentType":5126,"count":24,"max":[0.6100000143051147,1.024999976158142,0.07000000029802322],"min":[-0.6100000143051147,-1.024999976158142,-0.07000000029802322],"normalized":false,"type":"VEC3"},{"bufferView":20,"componentType":5126,"count":24,"max":[0.07999999821186066,0.9599999785423279,0.02500000037252903],"min":[-0.07999999821186066,-0.9599999785423279,-0.02500000037252903],"normalized":false,"type":"VEC3"},{"bufferView":21,"componentType":5126,"count":24,"max":[0.07999999821186066,1.0750000476837158,0.07999999821186066],"min":[-0.07999999821186066,-1.0750000476837158,-0.07999999821186066],"normalized":false,"type":"VEC3"},{"bufferView":22,"componentType":5126,"count":24,"max":[1.6749999523162842,1.0750000476837158,1.725000023841858],"min":[-1.6749999523162842,-1.0750000476837158,-1.725000023841858],"normalized":false,"type":"VEC3"},{"bufferView":23,"componentType":5126,"count":20,"max":[1.9249999523162842,0.6899999976158142,1.9249999523162842],"min":[-1.9249999523162842,-0.6899999976158142,-1.9249999523162842],"normalized":false,"type":"VEC3"},{"bufferView":24,"componentType":5126,"count":20,"max":[1.0,0.0,1.0,1.0],"min":[-1.0,-1.5259254723787308e-05,-1.0,1.0],"normalized":false,"type":"VEC4"},{"bufferView":25,"componentType":5126,"count":20,"max":[0.5826390981674194,0.8127309679985046,1.0],"min":[-0.582667350769043,-1.0,-1.0],"normalized":false,"type":"VEC3"},{"bufferView":26,"componentType":5126,"count":20,"max":[1.0,1.0],"min":[0.0,0.0],"normalized":false,"type":"VEC2"},{"bufferView":27,"componentType":5121,"count":24,"max":[19],"min":[2],"normalized":false,"type":"SCALAR"},{"bufferView":28,"componentType":5126,"count":24,"max":[0.09000000357627869,0.05000000074505806,1.774999976158142],"min":[-0.09000000357627869,-0.05000000074505806,-1.774999976158142],"normalized":false,"type":"VEC3"},{"bufferView":29,"componentType":5126,"count":24,"max":[1.1749999523162842,0.875,1.274999976158142],"min":[-1.1749999523162842,-0.875,-1.274999976158142],"normalized":false,"type":"VEC3"},{"bufferView":30,"componentType":5126,"count":20,"max":[1.3250000476837158,0.5899999737739563,1.4249999523162842],"min":[-1.3250000476837158,-0.5899999737739563,-1.4249999523162842],"normalized":false,"type":"VEC3"},{"bufferView":31,"componentType":5126,"count":20,"max":[0.6650548577308655,0.7467945218086243,1.0],"min":[-0.6650789380073547,-1.0,-1.0],"normalized":false,"type":"VEC3"},{"bufferView":32,"componentType":5126,"count":24,"max":[1.625,1.524999976158142,1.5750000476837158],"min":[-1.625,-1.524999976158142,-1.5750000476837158],"normalized":false,"type":"VEC3"},{"bufferView":33,"componentType":5126,"count":24,"max":[1.4249999523162842,0.675000011920929,1.375],"min":[-1.4249999523162842,-0.675000011920929,-1.375],"normalized":false,"type":"VEC3"},{"bufferView":34,"componentType":5126,"count":20,"max":[1.774999976158142,0.7900000214576721,1.6749999523162842],"min":[-1.774999976158142,-0.7900000214576721,-1.6749999523162842],"normalized":false,"type":"VEC3"},{"bufferView":35,"componentType":5126,"count":20,"max":[0.6648731231689453,0.7469563484191895,1.0],"min":[-0.6648972630500793,-1.0,-1.0],"normalized":false,"type":"VEC3"},{"bufferView":36,"componentType":5126,"count":24,"max":[0.10000000149011612,0.05000000074505806,1.524999976158142],"min":[-0.10000000149011612,-0.05000000074505806,-1.524999976158142],"normalized":false,"type":"VEC3"},{"bufferView":37,"componentType":5126,"count":24,"max":[0.18000000715255737,0.20999999344348907,0.14000000059604645],"min":[-0.18000000715255737,-0.20999999344348907,-0.14000000059604645],"normalized":false,"type":"VEC3"},{"bufferView":38,"componentType":5126,"count":77,"max":[0.8579365611076355,2.674999952316284,0.8799999952316284],"min":[-0.8579366207122803,-2.674999952316284,-0.8799999952316284],"normalized":false,"type":"VEC3"},{"bufferView":39,"componentType":5126,"count":77,"max":[1.0,0.0,0.974933385848999,1.0],"min":[-1.0,-2.1443969671963714e-05,-0.9749197363853455,1.0],"normalized":false,"type":"VEC4"},{"bufferView":40,"componentType":5126,"count":77,"max":[0.97483229637146,1.0,0.9998883605003357],"min":[-0.9748247265815735,-1.0,-0.9998881220817566],"normalized":false,"type":"VEC3"},{"bufferView":41,"componentType":5126,"count":77,"max":[1.0,1.0],"min":[0.0,0.0],"normalized":false,"type":"VEC2"},{"bufferView":42,"componentType":5121,"count":252,"max":[76],"min":[0],"normalized":false,"type":"SCALAR"},{"bufferView":43,"componentType":5126,"count":77,"max":[0.9359307885169983,0.10000000149011612,0.9599999785423279],"min":[-0.9359308481216431,-0.10000000149011612,-0.9599999785423279],"normalized":false,"type":"VEC3"},{"bufferView":44,"componentType":5126,"count":77,"max":[0.9749343395233154,1.0,1.0],"min":[-0.9749343395233154,-1.0,-1.0],"normalized":false,"type":"VEC3"},{"bufferView":45,"componentType":5126,"count":24,"max":[0.17000000178813934,0.20000000298023224,0.10999999940395355],"min":[-0.17000000178813934,-0.20000000298023224,-0.10999999940395355],"normalized":false,"type":"VEC3"},{"bufferView":46,"componentType":5126,"count":77,"max":[0.9164322018623352,0.8500000238418579,0.9399999976158142],"min":[-0.91643226146698,-0.8500000238418579,-0.9399999976158142],"normalized":false,"type":"VEC3"},{"bufferView":47,"componentType":5126,"count":77,"max":[0.8574309349060059,1.0,0.879485011100769],"min":[-0.8574421405792236,-1.0,-0.8794496655464172],"normalized":false,"type":"VEC3"},{"bufferView":48,"componentType":5126,"count":24,"max":[0.03500000014901161,0.20999999344348907,0.03500000014901161],"min":[-0.03500000014901161,-0.20999999344348907,-0.03500000014901161],"normalized":false,"type":"VEC3"},{"bufferView":49,"componentType":5126,"count":24,"max":[0.10000000149011612,0.3400000035762787,0.05999999865889549],"min":[-0.10000000149011612,-0.3400000035762787,-0.05999999865889549],"normalized":false,"type":"VEC3"},{"bufferView":50,"componentType":5126,"count":77,"max":[1.0529221296310425,4.775000095367432,1.0800000429153442],"min":[-1.052922248840332,-4.775000095367432,-1.0800000429153442],"normalized":false,"type":"VEC3"},{"bufferView":51,"componentType":5126,"count":77,"max":[0.9748633503913879,1.0,0.9999211430549622],"min":[-0.9748557806015015,-1.0,-0.9999209642410278],"normalized":false,"type":"VEC3"},{"bufferView":52,"componentType":5126,"count":77,"max":[1.1309163570404053,0.11999999731779099,1.159999966621399],"min":[-1.1309163570404053,-0.11999999731779099,-1.159999966621399],"normalized":false,"type":"VEC3"},{"bufferView":53,"componentType":5126,"count":24,"max":[0.1899999976158142,0.23000000417232513,0.11999999731779099],"min":[-0.1899999976158142,-0.23000000417232513,-0.11999999731779099],"normalized":false,"type":"VEC3"},{"bufferView":54,"componentType":5126,"count":77,"max":[1.0919193029403687,1.0750000476837158,1.1200000047683716],"min":[-1.0919193029403687,-1.0750000476837158,-1.1200000047683716],"normalized":false,"type":"VEC3"},{"bufferView":55,"componentType":5126,"count":77,"max":[0.8679271936416626,1.0,0.8902449011802673],"min":[-0.8679466247558594,-1.0,-0.8902366161346436],"normalized":false,"type":"VEC3"},{"bufferView":56,"componentType":5126,"count":24,"max":[0.03999999910593033,0.2750000059604645,0.03999999910593033],"min":[-0.03999999910593033,-0.2750000059604645,-0.03999999910593033],"normalized":false,"type":"VEC3"},{"bufferView":57,"componentType":5126,"count":24,"max":[0.03500000014901161,0.925000011920929,0.03500000014901161],"min":[-0.03500000014901161,-0.925000011920929,-0.03500000014901161],"normalized":false,"type":"VEC3"},{"bufferView":58,"componentType":5126,"count":24,"max":[0.4749999940395355,0.3100000023841858,0.029999999329447746],"min":[-0.4749999940395355,-0.3100000023841858,-0.029999999329447746],"normalized":false,"type":"VEC3"},{"bufferView":59,"componentType":5126,"count":24,"max":[0.11999999731779099,0.4099999964237213,0.07000000029802322],"min":[-0.11999999731779099,-0.4099999964237213,-0.07000000029802322],"normalized":false,"type":"VEC3"},{"bufferView":60,"componentType":5126,"count":24,"max":[0.18000000715255737,0.4099999964237213,0.07000000029802322],"min":[-0.18000000715255737,-0.4099999964237213,-0.07000000029802322],"normalized":false,"type":"VEC3"},{"bufferView":61,"componentType":5126,"count":24,"max":[0.09000000357627869,1.75,0.09000000357627869],"min":[-0.09000000357627869,-1.75,-0.09000000357627869],"normalized":false,"type":"VEC3"},{"bufferView":62,"componentType":5126,"count":24,"max":[2.6500000953674316,0.05999999865889549,0.07000000029802322],"min":[-2.6500000953674316,-0.05999999865889549,-0.07000000029802322],"normalized":false,"type":"VEC3"},{"bufferView":63,"componentType":5126,"count":24,"max":[2.3499999046325684,0.07000000029802322,0.07999999821186066],"min":[-2.3499999046325684,-0.07000000029802322,-0.07999999821186066],"normalized":false,"type":"VEC3"},{"bufferView":64,"componentType":5126,"count":24,"max":[1.1749999523162842,0.10999999940395355,0.5249999761581421],"min":[-1.1749999523162842,-0.10999999940395355,-0.5249999761581421],"normalized":false,"type":"VEC3"},{"bufferView":65,"componentType":5126,"count":24,"max":[0.925000011920929,0.07999999821186066,0.23000000417232513],"min":[-0.925000011920929,-0.07999999821186066,-0.23000000417232513],"normalized":false,"type":"VEC3"},{"bufferView":66,"componentType":5126,"count":24,"max":[3.075000047683716,0.25999999046325684,0.2750000059604645],"min":[-3.075000047683716,-0.25999999046325684,-0.2750000059604645],"normalized":false,"type":"VEC3"}],"asset":{"generator":"Godot Engine v4.7.stable.official@5b4e0cb0fd279832bbdd69fed5354d4e5ad26f88","version":"2.0"},"bufferViews":[{"buffer":0,"byteLength":288,"byteStride":12,"target":34962},{"buffer":0,"byteLength":384,"byteOffset":288,"byteStride":16,"target":34962},{"buffer":0,"byteLength":288,"byteOffset":672,"byteStride":12,"target":34962},{"buffer":0,"byteLength":192,"byteOffset":960,"byteStride":8,"target":34962},{"buffer":0,"byteLength":36,"byteOffset":1152,"target":34963},{"buffer":0,"byteLength":288,"byteOffset":1188,"byteStride":12,"target":34962},{"buffer":0,"byteLength":288,"byteOffset":1476,"byteStride":12,"target":34962},{"buffer":0,"byteLength":288,"byteOffset":1764,"byteStride":12,"target":34962},{"buffer":0,"byteLength":288,"byteOffset":2052,"byteStride":12,"target":34962},{"buffer":0,"byteLength":288,"byteOffset":2340,"byteStride":12,"target":34962},{"buffer":0,"byteLength":288,"byteOffset":2628,"byteStride":12,"target":34962},{"buffer":0,"byteLength":288,"byteOffset":2916,"byteStride":12,"target":34962},{"buffer":0,"byteLength":288,"byteOffset":3204,"byteStride":12,"target":34962},{"buffer":0,"byteLength":288,"byteOffset":3492,"byteStride":12,"target":34962},{"buffer":0,"byteLength":288,"byteOffset":3780,"byteStride":12,"target":34962},{"buffer":0,"byteLength":288,"byteOffset":4068,"byteStride":12,"target":34962},{"buffer":0,"byteLength":288,"byteOffset":4356,"byteStride":12,"target":34962},{"buffer":0,"byteLength":288,"byteOffset":4644,"byteStride":12,"target":34962},{"buffer":0,"byteLength":288,"byteOffset":4932,"byteStride":12,"target":34962},{"buffer":0,"byteLength":288,"byteOffset":5220,"byteStride":12,"target":34962},{"buffer":0,"byteLength":288,"byteOffset":5508,"byteStride":12,"target":34962},{"buffer":0,"byteLength":288,"byteOffset":5796,"byteStride":12,"target":34962},{"buffer":0,"byteLength":288,"byteOffset":6084,"byteStride":12,"target":34962},{"buffer":0,"byteLength":240,"byteOffset":6372,"byteStride":12,"target":34962},{"buffer":0,"byteLength":320,"byteOffset":6612,"byteStride":16,"target":34962},{"buffer":0,"byteLength":240,"byteOffset":6932,"byteStride":12,"target":34962},{"buffer":0,"byteLength":160,"byteOffset":7172,"byteStride":8,"target":34962},{"buffer":0,"byteLength":24,"byteOffset":7332,"target":34963},{"buffer":0,"byteLength":288,"byteOffset":7356,"byteStride":12,"target":34962},{"buffer":0,"byteLength":288,"byteOffset":7644,"byteStride":12,"target":34962},{"buffer":0,"byteLength":240,"byteOffset":7932,"byteStride":12,"target":34962},{"buffer":0,"byteLength":240,"byteOffset":8172,"byteStride":12,"target":34962},{"buffer":0,"byteLength":288,"byteOffset":8412,"byteStride":12,"target":34962},{"buffer":0,"byteLength":288,"byteOffset":8700,"byteStride":12,"target":34962},{"buffer":0,"byteLength":240,"byteOffset":8988,"byteStride":12,"target":34962},{"buffer":0,"byteLength":240,"byteOffset":9228,"byteStride":12,"target":34962},{"buffer":0,"byteLength":288,"byteOffset":9468,"byteStride":12,"target":34962},{"buffer":0,"byteLength":288,"byteOffset":9756,"byteStride":12,"target":34962},{"buffer":0,"byteLength":924,"byteOffset":10044,"byteStride":12,"target":34962},{"buffer":0,"byteLength":1232,"byteOffset":10968,"byteStride":16,"target":34962},{"buffer":0,"byteLength":924,"byteOffset":12200,"byteStride":12,"target":34962},{"buffer":0,"byteLength":616,"byteOffset":13124,"byteStride":8,"target":34962},{"buffer":0,"byteLength":252,"byteOffset":13740,"target":34963},{"buffer":0,"byteLength":924,"byteOffset":13992,"byteStride":12,"target":34962},{"buffer":0,"byteLength":924,"byteOffset":14916,"byteStride":12,"target":34962},{"buffer":0,"byteLength":288,"byteOffset":15840,"byteStride":12,"target":34962},{"buffer":0,"byteLength":924,"byteOffset":16128,"byteStride":12,"target":34962},{"buffer":0,"byteLength":924,"byteOffset":17052,"byteStride":12,"target":34962},{"buffer":0,"byteLength":288,"byteOffset":17976,"byteStride":12,"target":34962},{"buffer":0,"byteLength":288,"byteOffset":18264,"byteStride":12,"target":34962},{"buffer":0,"byteLength":924,"byteOffset":18552,"byteStride":12,"target":34962},{"buffer":0,"byteLength":924,"byteOffset":19476,"byteStride":12,"target":34962},{"buffer":0,"byteLength":924,"byteOffset":20400,"byteStride":12,"target":34962},{"buffer":0,"byteLength":288,"byteOffset":21324,"byteStride":12,"target":34962},{"buffer":0,"byteLength":924,"byteOffset":21612,"byteStride":12,"target":34962},{"buffer":0,"byteLength":924,"byteOffset":22536,"byteStride":12,"target":34962},{"buffer":0,"byteLength":288,"byteOffset":23460,"byteStride":12,"target":34962},{"buffer":0,"byteLength":288,"byteOffset":23748,"byteStride":12,"target":34962},{"buffer":0,"byteLength":288,"byteOffset":24036,"byteStride":12,"target":34962},{"buffer":0,"byteLength":288,"byteOffset":24324,"byteStride":12,"target":34962},{"buffer":0,"byteLength":288,"byteOffset":24612,"byteStride":12,"target":34962},{"buffer":0,"byteLength":288,"byteOffset":24900,"byteStride":12,"target":34962},{"buffer":0,"byteLength":288,"byteOffset":25188,"byteStride":12,"target":34962},{"buffer":0,"byteLength":288,"byteOffset":25476,"byteStride":12,"target":34962},{"buffer":0,"byteLength":288,"byteOffset":25764,"byteStride":12,"target":34962},{"buffer":0,"byteLength":288,"byteOffset":26052,"byteStride":12,"target":34962},{"buffer":0,"byteLength":288,"byteOffset":26340,"byteStride":12,"target":34962}],"buffers":[{"byteLength":26628,"uri":"civic_keep0.bin"}],"extensionsUsed":["GODOT_single_root"],"materials":[{"pbrMetallicRoughness":{"baseColorFactor":[0.6104955673217773,0.5209956169128418,0.3613067865371704,1.0],"metallicFactor":0.0,"roughnessFactor":0.8999999761581421}},{"pbrMetallicRoughness":{"baseColorFactor":[0.0423114113509655,0.03189602866768837,0.021219009533524513,1.0],"metallicFactor":0.0,"roughnessFactor":0.8999999761581421}},{"pbrMetallicRoughness":{"baseColorFactor":[0.1144353598356247,0.05780543386936188,0.0284260381013155,1.0],"metallicFactor":0.0,"roughnessFactor":0.8999999761581421}},{"pbrMetallicRoughness":{"baseColorFactor":[0.2581828534603119,0.02732088789343834,0.0423114113509655,1.0],"metallicFactor":0.0,"roughnessFactor":0.8999999761581421}},{"pbrMetallicRoughness":{"baseColorFactor":[0.7454042434692383,0.6307570934295654,0.44520115852355957,1.0],"metallicFactor":0.0,"roughnessFactor":0.8999999761581421}},{"pbrMetallicRoughness":{"baseColorFactor":[0.05951124057173729,0.14702725410461426,0.1384316086769104,1.0],"metallicFactor":0.0,"roughnessFactor":0.8999999761581421}}],"meshes":[{"primitives":[{"attributes":{"NORMAL":2,"POSITION":0,"TANGENT":1,"TEXCOORD_0":3},"indices":4,"material":0,"mode":4}]},{"primitives":[{"attributes":{"NORMAL":2,"POSITION":5,"TANGENT":1,"TEXCOORD_0":3},"indices":4,"material":0,"mode":4}]},{"primitives":[{"attributes":{"NORMAL":2,"POSITION":6,"TANGENT":1,"TEXCOORD_0":3},"indices":4,"material":0,"mode":4}]},{"primitives":[{"attributes":{"NORMAL":2,"POSITION":7,"TANGENT":1,"TEXCOORD_0":3},"indices":4,"material":0,"mode":4}]},{"primitives":[{"attributes":{"NORMAL":2,"POSITION":8,"TANGENT":1,"TEXCOORD_0":3},"indices":4,"material":1,"mode":4}]},{"primitives":[{"attributes":{"NORMAL":2,"POSITION":9,"TANGENT":1,"TEXCOORD_0":3},"indices":4,"material":0,"mode":4}]},{"primitives":[{"attributes":{"NORMAL":2,"POSITION":9,"TANGENT":1,"TEXCOORD_0":3},"indices":4,"material":0,"mode":4}]},{"primitives":[{"attributes":{"NORMAL":2,"POSITION":10,"TANGENT":1,"TEXCOORD_0":3},"indices":4,"material":0,"mode":4}]},{"primitives":[{"attributes":{"NORMAL":2,"POSITION":10,"TANGENT":1,"TEXCOORD_0":3},"indices":4,"material":0,"mode":4}]},{"primitives":[{"attributes":{"NORMAL":2,"POSITION":11,"TANGENT":1,"TEXCOORD_0":3},"indices":4,"material":1,"mode":4}]},{"primitives":[{"attributes":{"NORMAL":2,"POSITION":11,"TANGENT":1,"TEXCOORD_0":3},"indices":4,"material":1,"mode":4}]},{"primitives":[{"attributes":{"NORMAL":2,"POSITION":12,"TANGENT":1,"TEXCOORD_0":3},"indices":4,"material":0,"mode":4}]},{"primitives":[{"attributes":{"NORMAL":2,"POSITION":13,"TANGENT":1,"TEXCOORD_0":3},"indices":4,"material":0,"mode":4}]},{"primitives":[{"attributes":{"NORMAL":2,"POSITION":14,"TANGENT":1,"TEXCOORD_0":3},"indices":4,"material":1,"mode":4}]},{"primitives":[{"attributes":{"NORMAL":2,"POSITION":14,"TANGENT":1,"TEXCOORD_0":3},"indices":4,"material":1,"mode":4}]},{"primitives":[{"attributes":{"NORMAL":2,"POSITION":15,"TANGENT":1,"TEXCOORD_0":3},"indices":4,"material":2,"mode":4}]},{"primitives":[{"attributes":{"NORMAL":2,"POSITION":16,"TANGENT":1,"TEXCOORD_0":3},"indices":4,"material":3,"mode":4}]},{"primitives":[{"attributes":{"NORMAL":2,"POSITION":17,"TANGENT":1,"TEXCOORD_0":3},"indices":4,"material":2,"mode":4}]},{"primitives":[{"attributes":{"NORMAL":2,"POSITION":17,"TANGENT":1,"TEXCOORD_0":3},"indices":4,"material":2,"mode":4}]},{"primitives":[{"attributes":{"NORMAL":2,"POSITION":18,"TANGENT":1,"TEXCOORD_0":3},"indices":4,"material":2,"mode":4}]},{"primitives":[{"attributes":{"NORMAL":2,"POSITION":19,"TANGENT":1,"TEXCOORD_0":3},"indices":4,"material":2,"mode":4}]},{"primitives":[{"attributes":{"NORMAL":2,"POSITION":20,"TANGENT":1,"TEXCOORD_0":3},"indices":4,"material":2,"mode":4}]},{"primitives":[{"attributes":{"NORMAL":2,"POSITION":20,"TANGENT":1,"TEXCOORD_0":3},"indices":4,"material":2,"mode":4}]},{"primitives":[{"attributes":{"NORMAL":2,"POSITION":20,"TANGENT":1,"TEXCOORD_0":3},"indices":4,"material":2,"mode":4}]},{"primitives":[{"attributes":{"NORMAL":2,"POSITION":20,"TANGENT":1,"TEXCOORD_0":3},"indices":4,"material":2,"mode":4}]},{"primitives":[{"attributes":{"NORMAL":2,"POSITION":21,"TANGENT":1,"TEXCOORD_0":3},"indices":4,"material":2,"mode":4}]},{"primitives":[{"attributes":{"NORMAL":2,"POSITION":21,"TANGENT":1,"TEXCOORD_0":3},"indices":4,"material":2,"mode":4}]},{"primitives":[{"attributes":{"NORMAL":2,"POSITION":22,"TANGENT":1,"TEXCOORD_0":3},"indices":4,"material":4,"mode":4}]},{"primitives":[{"attributes":{"NORMAL":25,"POSITION":23,"TANGENT":24,"TEXCOORD_0":26},"indices":27,"material":5,"mode":4}]},{"primitives":[{"attributes":{"NORMAL":2,"POSITION":28,"TANGENT":1,"TEXCOORD_0":3},"indices":4,"material":5,"mode":4}]},{"primitives":[{"attributes":{"NORMAL":2,"POSITION":29,"TANGENT":1,"TEXCOORD_0":3},"indices":4,"material":0,"mode":4}]},{"primitives":[{"attributes":{"NORMAL":31,"POSITION":30,"TANGENT":24,"TEXCOORD_0":26},"indices":27,"material":5,"mode":4}]},{"primitives":[{"attributes":{"NORMAL":2,"POSITION":32,"TANGENT":1,"TEXCOORD_0":3},"indices":4,"material":0,"mode":4}]},{"primitives":[{"attributes":{"NORMAL":2,"POSITION":33,"TANGENT":1,"TEXCOORD_0":3},"indices":4,"material":4,"mode":4}]},{"primitives":[{"attributes":{"NORMAL":35,"POSITION":34,"TANGENT":24,"TEXCOORD_0":26},"indices":27,"material":5,"mode":4}]},{"primitives":[{"attributes":{"NORMAL":2,"POSITION":36,"TANGENT":1,"TEXCOORD_0":3},"indices":4,"material":5,"mode":4}]},{"primitives":[{"attributes":{"NORMAL":2,"POSITION":37,"TANGENT":1,"TEXCOORD_0":3},"indices":4,"material":0,"mode":4}]},{"primitives":[{"attributes":{"NORMAL":2,"POSITION":37,"TANGENT":1,"TEXCOORD_0":3},"indices":4,"material":0,"mode":4}]},{"primitives":[{"attributes":{"NORMAL":2,"POSITION":37,"TANGENT":1,"TEXCOORD_0":3},"indices":4,"material":0,"mode":4}]},{"primitives":[{"attributes":{"NORMAL":2,"POSITION":37,"TANGENT":1,"TEXCOORD_0":3},"indices":4,"material":0,"mode":4}]},{"primitives":[{"attributes":{"NORMAL":2,"POSITION":37,"TANGENT":1,"TEXCOORD_0":3},"indices":4,"material":0,"mode":4}]},{"primitives":[{"attributes":{"NORMAL":2,"POSITION":37,"TANGENT":1,"TEXCOORD_0":3},"indices":4,"material":0,"mode":4}]},{"primitives":[{"attributes":{"NORMAL":2,"POSITION":37,"TANGENT":1,"TEXCOORD_0":3},"indices":4,"material":0,"mode":4}]},{"primitives":[{"attributes":{"NORMAL":2,"POSITION":37,"TANGENT":1,"TEXCOORD_0":3},"indices":4,"material":0,"mode":4}]},{"primitives":[{"attributes":{"NORMAL":2,"POSITION":37,"TANGENT":1,"TEXCOORD_0":3},"indices":4,"material":0,"mode":4}]},{"primitives":[{"attributes":{"NORMAL":2,"POSITION":37,"TANGENT":1,"TEXCOORD_0":3},"indices":4,"material":0,"mode":4}]},{"primitives":[{"attributes":{"NORMAL":2,"POSITION":37,"TANGENT":1,"TEXCOORD_0":3},"indices":4,"material":0,"mode":4}]},{"primitives":[{"attributes":{"NORMAL":2,"POSITION":37,"TANGENT":1,"TEXCOORD_0":3},"indices":4,"material":0,"mode":4}]},{"primitives":[{"attributes":{"NORMAL":2,"POSITION":37,"TANGENT":1,"TEXCOORD_0":3},"indices":4,"material":0,"mode":4}]},{"primitives":[{"attributes":{"NORMAL":2,"POSITION":37,"TANGENT":1,"TEXCOORD_0":3},"indices":4,"material":0,"mode":4}]},{"primitives":[{"attributes":{"NORMAL":2,"POSITION":37,"TANGENT":1,"TEXCOORD_0":3},"indices":4,"material":0,"mode":4}]},{"primitives":[{"attributes":{"NORMAL":2,"POSITION":37,"TANGENT":1,"TEXCOORD_0":3},"indices":4,"material":0,"mode":4}]},{"primitives":[{"attributes":{"NORMAL":2,"POSITION":37,"TANGENT":1,"TEXCOORD_0":3},"indices":4,"material":0,"mode":4}]},{"primitives":[{"attributes":{"NORMAL":2,"POSITION":37,"TANGENT":1,"TEXCOORD_0":3},"indices":4,"material":0,"mode":4}]},{"primitives":[{"attributes":{"NORMAL":2,"POSITION":37,"TANGENT":1,"TEXCOORD_0":3},"indices":4,"material":0,"mode":4}]},{"primitives":[{"attributes":{"NORMAL":2,"POSITION":37,"TANGENT":1,"TEXCOORD_0":3},"indices":4,"material":0,"mode":4}]},{"primitives":[{"attributes":{"NORMAL":2,"POSITION":37,"TANGENT":1,"TEXCOORD_0":3},"indices":4,"material":0,"mode":4}]},{"primitives":[{"attributes":{"NORMAL":2,"POSITION":37,"TANGENT":1,"TEXCOORD_0":3},"indices":4,"material":0,"mode":4}]},{"primitives":[{"attributes":{"NORMAL":2,"POSITION":37,"TANGENT":1,"TEXCOORD_0":3},"indices":4,"material":0,"mode":4}]},{"primitives":[{"attributes":{"NORMAL":2,"POSITION":37,"TANGENT":1,"TEXCOORD_0":3},"indices":4,"material":0,"mode":4}]},{"primitives":[{"attributes":{"NORMAL":2,"POSITION":37,"TANGENT":1,"TEXCOORD_0":3},"indices":4,"material":0,"mode":4}]},{"primitives":[{"attributes":{"NORMAL":2,"POSITION":37,"TANGENT":1,"TEXCOORD_0":3},"indices":4,"material":0,"mode":4}]},{"primitives":[{"attributes":{"NORMAL":2,"POSITION":37,"TANGENT":1,"TEXCOORD_0":3},"indices":4,"material":0,"mode":4}]},{"primitives":[{"attributes":{"NORMAL":2,"POSITION":37,"TANGENT":1,"TEXCOORD_0":3},"indices":4,"material":0,"mode":4}]},{"primitives":[{"attributes":{"NORMAL":2,"POSITION":37,"TANGENT":1,"TEXCOORD_0":3},"indices":4,"material":0,"mode":4}]},{"primitives":[{"attributes":{"NORMAL":40,"POSITION":38,"TANGENT":39,"TEXCOORD_0":41},"indices":42,"material":0,"mode":4}]},{"primitives":[{"attributes":{"NORMAL":44,"POSITION":43,"TANGENT":39,"TEXCOORD_0":41},"indices":42,"material":0,"mode":4}]},{"primitives":[{"attributes":{"NORMAL":2,"POSITION":45,"TANGENT":1,"TEXCOORD_0":3},"indices":4,"material":0,"mode":4}]},{"primitives":[{"attributes":{"NORMAL":2,"POSITION":45,"TANGENT":1,"TEXCOORD_0":3},"indices":4,"material":0,"mode":4}]},{"primitives":[{"attributes":{"NORMAL":2,"POSITION":45,"TANGENT":1,"TEXCOORD_0":3},"indices":4,"material":0,"mode":4}]},{"primitives":[{"attributes":{"NORMAL":2,"POSITION":45,"TANGENT":1,"TEXCOORD_0":3},"indices":4,"material":0,"mode":4}]},{"primitives":[{"attributes":{"NORMAL":2,"POSITION":45,"TANGENT":1,"TEXCOORD_0":3},"indices":4,"material":0,"mode":4}]},{"primitives":[{"attributes":{"NORMAL":2,"POSITION":45,"TANGENT":1,"TEXCOORD_0":3},"indices":4,"material":0,"mode":4}]},{"primitives":[{"attributes":{"NORMAL":47,"POSITION":46,"TANGENT":39,"TEXCOORD_0":41},"indices":42,"material":5,"mode":4}]},{"primitives":[{"attributes":{"NORMAL":2,"POSITION":48,"TANGENT":1,"TEXCOORD_0":3},"indices":4,"material":2,"mode":4}]},{"primitives":[{"attributes":{"NORMAL":2,"POSITION":49,"TANGENT":1,"TEXCOORD_0":3},"indices":4,"material":1,"mode":4}]},{"primitives":[{"attributes":{"NORMAL":2,"POSITION":49,"TANGENT":1,"TEXCOORD_0":3},"indices":4,"material":1,"mode":4}]},{"primitives":[{"attributes":{"NORMAL":2,"POSITION":49,"TANGENT":1,"TEXCOORD_0":3},"indices":4,"material":1,"mode":4}]},{"primitives":[{"attributes":{"NORMAL":51,"POSITION":50,"TANGENT":39,"TEXCOORD_0":41},"indices":42,"material":0,"mode":4}]},{"primitives":[{"attributes":{"NORMAL":44,"POSITION":52,"TANGENT":39,"TEXCOORD_0":41},"indices":42,"material":0,"mode":4}]},{"primitives":[{"attributes":{"NORMAL":2,"POSITION":53,"TANGENT":1,"TEXCOORD_0":3},"indices":4,"material":0,"mode":4}]},{"primitives":[{"attributes":{"NORMAL":2,"POSITION":53,"TANGENT":1,"TEXCOORD_0":3},"indices":4,"material":0,"mode":4}]},{"primitives":[{"attributes":{"NORMAL":2,"POSITION":53,"TANGENT":1,"TEXCOORD_0":3},"indices":4,"material":0,"mode":4}]},{"primitives":[{"attributes":{"NORMAL":2,"POSITION":53,"TANGENT":1,"TEXCOORD_0":3},"indices":4,"material":0,"mode":4}]},{"primitives":[{"attributes":{"NORMAL":2,"POSITION":53,"TANGENT":1,"TEXCOORD_0":3},"indices":4,"material":0,"mode":4}]},{"primitives":[{"attributes":{"NORMAL":2,"POSITION":53,"TANGENT":1,"TEXCOORD_0":3},"indices":4,"material":0,"mode":4}]},{"primitives":[{"attributes":{"NORMAL":2,"POSITION":53,"TANGENT":1,"TEXCOORD_0":3},"indices":4,"material":0,"mode":4}]},{"primitives":[{"attributes":{"NORMAL":55,"POSITION":54,"TANGENT":39,"TEXCOORD_0":41},"indices":42,"material":5,"mode":4}]},{"primitives":[{"attributes":{"NORMAL":2,"POSITION":56,"TANGENT":1,"TEXCOORD_0":3},"indices":4,"material":2,"mode":4}]},{"primitives":[{"attributes":{"NORMAL":2,"POSITION":57,"TANGENT":1,"TEXCOORD_0":3},"indices":4,"material":2,"mode":4}]},{"primitives":[{"attributes":{"NORMAL":2,"POSITION":58,"TANGENT":1,"TEXCOORD_0":3},"indices":4,"material":3,"mode":4}]},{"primitives":[{"attributes":{"NORMAL":2,"POSITION":59,"TANGENT":1,"TEXCOORD_0":3},"indices":4,"material":1,"mode":4}]},{"primitives":[{"attributes":{"NORMAL":2,"POSITION":59,"TANGENT":1,"TEXCOORD_0":3},"indices":4,"material":1,"mode":4}]},{"primitives":[{"attributes":{"NORMAL":2,"POSITION":59,"TANGENT":1,"TEXCOORD_0":3},"indices":4,"material":1,"mode":4}]},{"primitives":[{"attributes":{"NORMAL":2,"POSITION":59,"TANGENT":1,"TEXCOORD_0":3},"indices":4,"material":1,"mode":4}]},{"primitives":[{"attributes":{"NORMAL":2,"POSITION":60,"TANGENT":1,"TEXCOORD_0":3},"indices":4,"material":1,"mode":4}]},{"primitives":[{"attributes":{"NORMAL":2,"POSITION":60,"TANGENT":1,"TEXCOORD_0":3},"indices":4,"material":1,"mode":4}]},{"primitives":[{"attributes":{"NORMAL":2,"POSITION":60,"TANGENT":1,"TEXCOORD_0":3},"indices":4,"material":1,"mode":4}]},{"primitives":[{"attributes":{"NORMAL":2,"POSITION":60,"TANGENT":1,"TEXCOORD_0":3},"indices":4,"material":1,"mode":4}]},{"primitives":[{"attributes":{"NORMAL":2,"POSITION":60,"TANGENT":1,"TEXCOORD_0":3},"indices":4,"material":1,"mode":4}]},{"primitives":[{"attributes":{"NORMAL":2,"POSITION":60,"TANGENT":1,"TEXCOORD_0":3},"indices":4,"material":1,"mode":4}]},{"primitives":[{"attributes":{"NORMAL":2,"POSITION":60,"TANGENT":1,"TEXCOORD_0":3},"indices":4,"material":1,"mode":4}]},{"primitives":[{"attributes":{"NORMAL":2,"POSITION":60,"TANGENT":1,"TEXCOORD_0":3},"indices":4,"material":1,"mode":4}]},{"primitives":[{"attributes":{"NORMAL":2,"POSITION":60,"TANGENT":1,"TEXCOORD_0":3},"indices":4,"material":1,"mode":4}]},{"primitives":[{"attributes":{"NORMAL":2,"POSITION":60,"TANGENT":1,"TEXCOORD_0":3},"indices":4,"material":1,"mode":4}]},{"primitives":[{"attributes":{"NORMAL":2,"POSITION":61,"TANGENT":1,"TEXCOORD_0":3},"indices":4,"material":2,"mode":4}]},{"primitives":[{"attributes":{"NORMAL":2,"POSITION":61,"TANGENT":1,"TEXCOORD_0":3},"indices":4,"material":2,"mode":4}]},{"primitives":[{"attributes":{"NORMAL":2,"POSITION":61,"TANGENT":1,"TEXCOORD_0":3},"indices":4,"material":2,"mode":4}]},{"primitives":[{"attributes":{"NORMAL":2,"POSITION":61,"TANGENT":1,"TEXCOORD_0":3},"indices":4,"material":2,"mode":4}]},{"primitives":[{"attributes":{"NORMAL":2,"POSITION":62,"TANGENT":1,"TEXCOORD_0":3},"indices":4,"material":2,"mode":4}]},{"primitives":[{"attributes":{"NORMAL":2,"POSITION":63,"TANGENT":1,"TEXCOORD_0":3},"indices":4,"material":2,"mode":4}]},{"primitives":[{"attributes":{"NORMAL":2,"POSITION":64,"TANGENT":1,"TEXCOORD_0":3},"indices":4,"material":0,"mode":4}]},{"primitives":[{"attributes":{"NORMAL":2,"POSITION":65,"TANGENT":1,"TEXCOORD_0":3},"indices":4,"material":0,"mode":4}]},{"primitives":[{"attributes":{"NORMAL":2,"POSITION":66,"TANGENT":1,"TEXCOORD_0":3},"indices":4,"material":0,"mode":4}]}],"nodes":[{"children":[1,2,3,4,5,6,7,8,9,10,11,12,13,14,15,16,17,18,19,20,21,22,23,24,25,26,27,28,29,30,31,32,33,34,35,36,37,38,39,40,41,42,43,44,45,46,47,48,49,50,51,52,53,54,55,56,57,58,59,60,61,62,63,64,65,66,67,68,69,70,71,72,73,74,75,76,77,78,79,80,81,82,83,84,85,86,87,88,89,90,91,92,93,94,95,96,97,98,99,100,101,102,103,104,105,106,107,108,109,110,111,112,113,114],"name":"CivicKeep"},{"mesh":0,"name":"CivicPlinth","translation":[0.0,0.18000000715255737,0.05000000074505806]},{"mesh":1,"name":"CivicWall_Keep","translation":[-0.15000000596046448,2.180000066757202,-0.05000000074505806]},{"mesh":2,"name":"CivicGate","translation":[0.0,1.9500000476837158,2.619999885559082]},{"mesh":3,"name":"CivicGate_Arch","translation":[0.0,3.859999895095825,2.9200000762939453]},{"mesh":4,"name":"CivicRecess_Gate","translation":[0.0,1.5499999523162842,3.180000066757202]},{"mesh":5,"name":"CivicButtress_L","translation":[-1.5499999523162842,2.049999952316284,2.7200000286102295]},{"mesh":6,"name":"CivicButtress_R","translation":[1.5499999523162842,2.049999952316284,2.7200000286102295]},{"mesh":7,"name":"CivicButtress_FarL","translation":[-2.549999952316284,1.850000023841858,2.5799999237060547]},{"mesh":8,"name":"CivicButtress_FarR","translation":[2.4200000762939453,1.850000023841858,2.5799999237060547]},{"mesh":9,"name":"CivicFacade_Recess_L","translation":[-1.9500000476837158,2.549999952316284,2.5199999809265137]},{"mesh":10,"name":"CivicFacade_Recess_R","translation":[1.9500000476837158,2.549999952316284,2.5199999809265137]},{"mesh":11,"name":"CivicString_Course","translation":[0.0,3.950000047683716,2.5799999237060547]},{"mesh":12,"name":"CivicString_Low","translation":[0.0,1.149999976158142,2.5799999237060547]},{"mesh":13,"name":"CivicWindow_Gate_L","translation":[-0.949999988079071,2.8499999046325684,3.049999952316284]},{"mesh":14,"name":"CivicWindow_Gate_R","translation":[0.949999988079071,2.8499999046325684,3.049999952316284]},{"mesh":15,"name":"CivicHerald_Pole","translation":[-0.550000011920929,4.550000190734863,2.880000114440918]},{"mesh":16,"name":"CivicHerald","translation":[-0.2199999988079071,4.619999885559082,2.880000114440918]},{"mesh":17,"name":"CivicTimber_GateTrimL","translation":[-0.949999988079071,1.5499999523162842,3.2200000286102295]},{"mesh":18,"name":"CivicTimber_GateTrimR","translation":[0.949999988079071,1.5499999523162842,3.2200000286102295]},{"mesh":19,"name":"CivicTimber_Lintel","translation":[0.0,2.4200000762939453,3.2799999713897705]},{"mesh":20,"name":"CivicDoor","translation":[0.0,1.2200000286102295,3.319999933242798]},{"mesh":21,"name":"CivicDoor_Plank_0","translation":[-0.4399999976158142,1.2200000286102295,3.4000000953674316]},{"mesh":22,"name":"CivicDoor_Plank_1","translation":[-0.15000000596046448,1.2200000286102295,3.4000000953674316]},{"mesh":23,"name":"CivicDoor_Plank_2","translation":[0.14000000059604645,1.2200000286102295,3.4000000953674316]},{"mesh":24,"name":"CivicDoor_Plank_3","translation":[0.4300000071525574,1.2200000286102295,3.4000000953674316]},{"mesh":25,"name":"CivicTimber_DoorFrameL","translation":[-0.7200000286102295,1.2799999713897705,3.299999952316284]},{"mesh":26,"name":"CivicTimber_DoorFrameR","translation":[0.7200000286102295,1.2799999713897705,3.299999952316284]},{"mesh":27,"name":"CivicWall_Wing","translation":[-1.5499999523162842,4.550000190734863,0.20000000298023224]},{"mesh":28,"name":"CivicRoof_Hall","translation":[-1.5,6.28000020980835,0.20000000298023224]},{"mesh":29,"name":"CivicRoof_RidgeHall","translation":[-1.5,6.980000019073486,0.20000000298023224]},{"mesh":30,"name":"CivicWall_Chapel","translation":[1.5499999523162842,4.349999904632568,0.3499999940395355]},{"mesh":31,"name":"CivicRoof_Wing","translation":[1.5499999523162842,5.849999904632568,0.3499999940395355]},{"mesh":32,"name":"CivicWall_KeepRaised","translation":[0.05000000074505806,6.550000190734863,-0.8500000238418579]},{"mesh":33,"name":"CivicPlaster_Upper","translation":[0.05000000074505806,7.550000190734863,-0.8500000238418579]},{"mesh":34,"name":"CivicRoof_Keep","translation":[0.05000000074505806,8.850000381469727,-0.8500000238418579]},{"mesh":35,"name":"CivicRoof_RidgeCap","translation":[0.05000000074505806,9.640000343322754,-0.8500000238418579]},{"mesh":36,"name":"CivicCrenel_Keep_0","translation":[-1.475000023841858,8.020000457763672,0.6800000071525574]},{"mesh":37,"name":"CivicCrenel_Keep_1","translation":[-0.7124999761581421,8.020000457763672,0.6800000071525574]},{"mesh":38,"name":"CivicCrenel_Keep_2","translation":[0.05000000074505806,8.020000457763672,0.6800000071525574]},{"mesh":39,"name":"CivicCrenel_Keep_3","translation":[0.8125,8.020000457763672,0.6800000071525574]},{"mesh":40,"name":"CivicCrenel_Keep_4","translation":[1.5749999284744263,8.020000457763672,0.6800000071525574]},{"mesh":41,"name":"CivicCrenel_Front_0","translation":[-2.674999952316284,4.179999828338623,2.4200000762939453]},{"mesh":42,"name":"CivicCrenel_Front_1","translation":[-1.7833333015441895,4.179999828338623,2.4200000762939453]},{"mesh":43,"name":"CivicCrenel_Front_2","translation":[-0.8916666507720947,4.179999828338623,2.4200000762939453]},{"mesh":44,"name":"CivicCrenel_Front_3","translation":[0.0,4.179999828338623,2.4200000762939453]},{"mesh":45,"name":"CivicCrenel_Front_4","translation":[0.8916666507720947,4.179999828338623,2.4200000762939453]},{"mesh":46,"name":"CivicCrenel_Front_5","translation":[1.7833333015441895,4.179999828338623,2.4200000762939453]},{"mesh":47,"name":"CivicCrenel_Front_6","translation":[2.674999952316284,4.179999828338623,2.4200000762939453]},{"mesh":48,"name":"CivicCrenel_Back_0","translation":[-2.674999952316284,4.179999828338623,-2.5199999809265137]},{"mesh":49,"name":"CivicCrenel_Back_1","translation":[-1.7833333015441895,4.179999828338623,-2.5199999809265137]},{"mesh":50,"name":"CivicCrenel_Back_2","translation":[-0.8916666507720947,4.179999828338623,-2.5199999809265137]},{"mesh":51,"name":"CivicCrenel_Back_3","translation":[0.0,4.179999828338623,-2.5199999809265137]},{"mesh":52,"name":"CivicCrenel_Back_4","translation":[0.8916666507720947,4.179999828338623,-2.5199999809265137]},{"mesh":53,"name":"CivicCrenel_Back_5","translation":[1.7833333015441895,4.179999828338623,-2.5199999809265137]},{"mesh":54,"name":"CivicCrenel_Back_6","translation":[2.674999952316284,4.179999828338623,-2.5199999809265137]},{"mesh":55,"name":"CivicCrenel_West_0","translation":[-2.950000047683716,4.179999828338623,-2.325000047683716]},{"mesh":56,"name":"CivicCrenel_West_1","translation":[-2.950000047683716,4.179999828338623,-1.1875]},{"mesh":57,"name":"CivicCrenel_West_2","translation":[-2.950000047683716,4.179999828338623,-0.05000000074505806]},{"mesh":58,"name":"CivicCrenel_West_3","translation":[-2.950000047683716,4.179999828338623,1.0875000953674316]},{"mesh":59,"name":"CivicCrenel_West_4","translation":[-2.950000047683716,4.179999828338623,2.2250001430511475]},{"mesh":60,"name":"CivicCrenel_East_0","translation":[2.6500000953674316,4.179999828338623,-2.325000047683716]},{"mesh":61,"name":"CivicCrenel_East_1","translation":[2.6500000953674316,4.179999828338623,-1.1875]},{"mesh":62,"name":"CivicCrenel_East_2","translation":[2.6500000953674316,4.179999828338623,-0.05000000074505806]},{"mesh":63,"name":"CivicCrenel_East_3","translation":[2.6500000953674316,4.179999828338623,1.0875000953674316]},{"mesh":64,"name":"CivicCrenel_East_4","translation":[2.6500000953674316,4.179999828338623,2.2250001430511475]},{"mesh":65,"name":"CivicWall_TowerFL","translation":[-2.950000047683716,2.674999952316284,2.4200000762939453]},{"mesh":66,"name":"CivicWall_TowerFLRing","translation":[-2.950000047683716,5.449999809265137,2.4200000762939453]},{"mesh":67,"name":"CivicCrenel_TowerFL_0","translation":[-2.1100001335144043,5.710000038146973,2.4200000762939453]},{"mesh":68,"name":"CivicCrenel_TowerFL_1","translation":[-2.5299999713897705,5.710000038146973,3.147461414337158]},{"mesh":69,"name":"CivicCrenel_TowerFL_2","translation":[-3.370000123977661,5.710000038146973,3.147461414337158]},{"mesh":70,"name":"CivicCrenel_TowerFL_3","translation":[-3.7899999618530273,5.710000038146973,2.4200000762939453]},{"mesh":71,"name":"CivicCrenel_TowerFL_4","translation":[-3.370000123977661,5.710000038146973,1.6925387382507324]},{"mesh":72,"name":"CivicCrenel_TowerFL_5","translation":[-2.5299999713897705,5.710000038146973,1.6925387382507324]},{"mesh":73,"name":"CivicRoof_ConeFL","translation":[-2.950000047683716,6.400000095367432,2.4200000762939453]},{"mesh":74,"name":"CivicTimber_FinialFL","translation":[-2.950000047683716,7.369999885559082,2.4200000762939453]},{"mesh":75,"name":"CivicWindow_TowerFL_0","translation":[-2.1763088703155518,2.3499999046325684,2.7471115589141846]},{"mesh":76,"name":"CivicWindow_TowerFL_1","translation":[-3.6201324462890625,3.200000047683716,2.926480770111084]},{"mesh":77,"name":"CivicWindow_TowerFL_2","translation":[-3.053558826446533,4.050000190734863,1.5864081382751465]},{"mesh":78,"name":"CivicWall_TowerTall","translation":[2.880000114440918,4.775000095367432,1.4199999570846558]},{"mesh":79,"name":"CivicWall_TowerTallRing","translation":[2.880000114440918,9.670000076293945,1.4199999570846558]},{"mesh":80,"name":"CivicCrenel_TowerTall_0","translation":[3.9000000953674316,9.970000267028809,1.4199999570846558]},{"mesh":81,"name":"CivicCrenel_TowerTall_1","translation":[3.5159597396850586,9.970000267028809,2.217468023300171]},{"mesh":82,"name":"CivicCrenel_TowerTall_2","translation":[2.653028726577759,9.970000267028809,2.414426326751709]},{"mesh":83,"name":"CivicCrenel_TowerTall_3","translation":[1.9610118865966797,9.970000267028809,1.8625613451004028]},{"mesh":84,"name":"CivicCrenel_TowerTall_4","translation":[1.9610118865966797,9.970000267028809,0.9774385690689087]},{"mesh":85,"name":"CivicCrenel_TowerTall_5","translation":[2.653028726577759,9.970000267028809,0.425573468208313]},{"mesh":86,"name":"CivicCrenel_TowerTall_6","translation":[3.5159597396850586,9.970000267028809,0.6225318312644958]},{"mesh":87,"name":"CivicRoof_ConeTall","translation":[2.880000114440918,10.829999923706055,1.4199999570846558]},{"mesh":88,"name":"CivicTimber_FinialTall","translation":[2.880000114440918,12.029999732971191,1.4199999570846558]},{"mesh":89,"name":"CivicBanner_Pole","translation":[3.3000001907348633,11.600000381469727,1.5999999046325684]},{"mesh":90,"name":"CivicBanner","translation":[3.8000001907348633,11.899999618530273,1.5999999046325684]},{"mesh":91,"name":"CivicWindow_TowerTall_0","translation":[3.749575138092041,2.549999952316284,1.9531409740447998]},{"mesh":92,"name":"CivicWindow_TowerTall_1","translation":[2.3468592166900635,4.0,2.2895750999450684]},{"mesh":93,"name":"CivicWindow_TowerTall_2","translation":[2.010425090789795,5.449999809265137,0.8868589997291565]},{"mesh":94,"name":"CivicWindow_TowerTall_3","translation":[3.4131410121917725,6.900000095367432,0.5504249334335327]},{"mesh":95,"name":"CivicWindow_0","translation":[-1.149999976158142,2.549999952316284,2.4800000190734863]},{"mesh":96,"name":"CivicWindow_1","translation":[1.149999976158142,2.549999952316284,2.4800000190734863]},{"mesh":97,"name":"CivicWindow_2","translation":[-1.149999976158142,3.549999952316284,2.4800000190734863]},{"mesh":98,"name":"CivicWindow_3","translation":[1.149999976158142,3.549999952316284,2.4800000190734863]},{"mesh":99,"name":"CivicWindow_4","translation":[-3.049999952316284,2.450000047683716,0.550000011920929]},{"mesh":100,"name":"CivicWindow_5","translation":[-3.049999952316284,3.4000000953674316,-0.550000011920929]},{"mesh":101,"name":"CivicWindow_6","translation":[2.75,2.450000047683716,-0.3499999940395355]},{"mesh":102,"name":"CivicWindow_7","translation":[-1.0499999523162842,6.849999904632568,0.6800000071525574]},{"mesh":103,"name":"CivicWindow_8","translation":[1.149999976158142,6.849999904632568,0.6800000071525574]},{"mesh":104,"name":"CivicWindow_9","translation":[0.05000000074505806,7.550000190734863,0.699999988079071]},{"mesh":105,"name":"CivicTimber_Corner_0","translation":[-2.7200000286102295,2.0999999046325684,-2.2200000286102295]},{"mesh":106,"name":"CivicTimber_Corner_1","translation":[-2.7200000286102295,2.0999999046325684,2.2200000286102295]},{"mesh":107,"name":"CivicTimber_Corner_2","translation":[2.7200000286102295,2.0999999046325684,-2.2200000286102295]},{"mesh":108,"name":"CivicTimber_Corner_3","translation":[2.7200000286102295,2.0999999046325684,2.2200000286102295]},{"mesh":109,"name":"CivicTimber_Plate","translation":[0.0,3.549999952316284,2.3399999141693115]},{"mesh":110,"name":"CivicTimber_Fascia","translation":[0.0,5.78000020980835,1.7799999713897705]},{"mesh":111,"name":"CivicPlinth_Stair","translation":[0.0,0.11999999731779099,3.180000066757202]},{"mesh":112,"name":"CivicPlinth_Step","translation":[0.0,0.23999999463558197,3.5199999809265137]},{"mesh":113,"name":"CivicPlinth_Base","translation":[0.0,0.2800000011920929,2.7200000286102295]}],"scene":0,"scenes":[{"nodes":[0]}]}