{"accessors":[{"bufferView":0,"componentType":5126,"count":24,"max":[3.5999999046325684,0.17000000178813934,3.0999999046325684],"min":[-3.5999999046325684,-0.17000000178813934,-3.0999999046325684],"normalized":false,"type":"VEC3"},{"bufferView":1,"componentType":5126,"count":24,"max":[1.0,0.0,1.0,1.0],"min":[-1.0,-1.5259254723787308e-05,-1.0,1.0],"normalized":false,"type":"VEC4"},{"bufferView":2,"componentType":5126,"count":24,"max":[1.0,1.0,1.0],"min":[-1.0,-1.0,-1.0],"normalized":false,"type":"VEC3"},{"bufferView":3,"componentType":5126,"count":24,"max":[1.0,1.0],"min":[0.0,0.0],"normalized":false,"type":"VEC2"},{"bufferView":4,"componentType":5121,"count":36,"max":[23],"min":[0],"normalized":false,"type":"SCALAR"},{"bufferView":5,"componentType":5126,"count":24,"max":[2.799999952316284,1.774999976158142,2.4000000953674316],"min":[-2.799999952316284,-1.774999976158142,-2.4000000953674316],"normalized":false,"type":"VEC3"},{"bufferView":6,"componentType":5126,"count":24,"max":[2.200000047683716,1.0,1.850000023841858],"min":[-2.200000047683716,-1.0,-1.850000023841858],"normalized":false,"type":"VEC3"},{"bufferView":7,"componentType":5126,"count":20,"max":[2.450000047683716,0.8600000143051147,2.0],"min":[-2.450000047683716,-0.8600000143051147,-2.0],"normalized":false,"type":"VEC3"},{"bufferView":8,"componentType":5126,"count":20,"max":[1.0,0.0,1.0,1.0],"min":[-1.0,-1.5259254723787308e-05,-1.0,1.0],"normalized":false,"type":"VEC4"},{"bufferView":9,"componentType":5126,"count":20,"max":[0.5745874643325806,0.818443238735199,1.0],"min":[-0.5746117234230042,-1.0,-1.0],"normalized":false,"type":"VEC3"},{"bufferView":10,"componentType":5126,"count":20,"max":[1.0,1.0],"min":[0.0,0.0],"normalized":false,"type":"VEC2"},{"bufferView":11,"componentType":5121,"count":24,"max":[19],"min":[2],"normalized":false,"type":"SCALAR"},{"bufferView":12,"componentType":5126,"count":24,"max":[0.10999999940395355,0.05000000074505806,1.850000023841858],"min":[-0.10999999940395355,-0.05000000074505806,-1.850000023841858],"normalized":false,"type":"VEC3"},{"bufferView":13,"componentType":5126,"count":77,"max":[0.8384380340576172,2.7750000953674316,0.8600000143051147],"min":[-0.8384380340576172,-2.7750000953674316,-0.8600000143051147],"normalized":false,"type":"VEC3"},{"bufferView":14,"componentType":5126,"count":77,"max":[1.0,0.0,0.974933385848999,1.0],"min":[-1.0,-2.1443969671963714e-05,-0.9749197363853455,1.0],"normalized":false,"type":"VEC4"},{"bufferView":15,"componentType":5126,"count":77,"max":[0.9748806953430176,1.0,0.999941885471344],"min":[-0.9748741984367371,-1.0,-0.9999414086341858],"normalized":false,"type":"VEC3"},{"bufferView":16,"componentType":5126,"count":77,"max":[1.0,1.0],"min":[0.0,0.0],"normalized":false,"type":"VEC2"},{"bufferView":17,"componentType":5121,"count":252,"max":[76],"min":[0],"normalized":false,"type":"SCALAR"},{"bufferView":18,"componentType":5126,"count":77,"max":[0.9164322018623352,0.10000000149011612,0.9399999976158142],"min":[-0.91643226146698,-0.10000000149011612,-0.9399999976158142],"normalized":false,"type":"VEC3"},{"bufferView":19,"componentType":5126,"count":77,"max":[0.9749343395233154,1.0,1.0],"min":[-0.9749343395233154,-1.0,-1.0],"normalized":false,"type":"VEC3"},{"bufferView":20,"componentType":5126,"count":24,"max":[0.17000000178813934,0.1899999976158142,0.10999999940395355],"min":[-0.17000000178813934,-0.1899999976158142,-0.10999999940395355],"normalized":false,"type":"VEC3"},{"bufferView":21,"componentType":5126,"count":77,"max":[0.8969336748123169,0.8500000238418579,0.9200000166893005],"min":[-0.8969337344169617,-0.8500000238418579,-0.9200000166893005],"normalized":false,"type":"VEC3"},{"bufferView":22,"componentType":5126,"count":77,"max":[0.86163729429245,1.0,0.8837859630584717],"min":[-0.8616482019424438,-1.0,-0.8837774395942688],"normalized":false,"type":"VEC3"},{"bufferView":23,"componentType":5126,"count":24,"max":[0.03500000014901161,0.20999999344348907,0.03500000014901161],"min":[-0.03500000014901161,-0.20999999344348907,-0.03500000014901161],"normalized":false,"type":"VEC3"},{"bufferView":24,"componentType":5126,"count":24,"max":[0.09000000357627869,0.3100000023841858,0.05000000074505806],"min":[-0.09000000357627869,-0.3100000023841858,-0.05000000074505806],"normalized":false,"type":"VEC3"},{"bufferView":25,"componentType":5126,"count":24,"max":[0.18000000715255737,0.20999999344348907,0.14000000059604645],"min":[-0.18000000715255737,-0.20999999344348907,-0.14000000059604645],"normalized":false,"type":"VEC3"},{"bufferView":26,"componentType":5126,"count":24,"max":[0.7749999761581421,0.10999999940395355,0.10999999940395355],"min":[-0.7749999761581421,-0.10999999940395355,-0.10999999940395355],"normalized":false,"type":"VEC3"},{"bufferView":27,"componentType":5126,"count":24,"max":[0.5899999737739563,0.9750000238418579,0.05999999865889549],"min":[-0.5899999737739563,-0.9750000238418579,-0.05999999865889549],"normalized":false,"type":"VEC3"},{"bufferView":28,"componentType":5126,"count":24,"max":[0.07999999821186066,0.9100000262260437,0.02500000037252903],"min":[-0.07999999821186066,-0.9100000262260437,-0.02500000037252903],"normalized":false,"type":"VEC3"},{"bufferView":29,"componentType":5126,"count":24,"max":[0.07999999821186066,1.024999976158142,0.07999999821186066],"min":[-0.07999999821186066,-1.024999976158142,-0.07999999821186066],"normalized":false,"type":"VEC3"},{"bufferView":30,"componentType":5126,"count":24,"max":[0.14000000059604645,0.36000001430511475,0.05000000074505806],"min":[-0.14000000059604645,-0.36000001430511475,-0.05000000074505806],"normalized":false,"type":"VEC3"},{"bufferView":31,"componentType":5126,"count":24,"max":[0.09000000357627869,1.75,0.09000000357627869],"min":[-0.09000000357627869,-1.75,-0.09000000357627869],"normalized":false,"type":"VEC3"},{"bufferView":32,"componentType":5126,"count":24,"max":[2.6500000953674316,0.05999999865889549,0.07000000029802322],"min":[-2.6500000953674316,-0.05999999865889549,-0.07000000029802322],"normalized":false,"type":"VEC3"},{"bufferView":33,"componentType":5126,"count":24,"max":[2.3499999046325684,0.07000000029802322,0.07999999821186066],"min":[-2.3499999046325684,-0.07000000029802322,-0.07999999821186066],"normalized":false,"type":"VEC3"},{"bufferView":34,"componentType":5126,"count":24,"max":[1.100000023841858,0.10000000149011612,0.4749999940395355],"min":[-1.100000023841858,-0.10000000149011612,-0.4749999940395355],"normalized":false,"type":"VEC3"},{"bufferView":35,"componentType":5126,"count":24,"max":[0.8500000238418579,0.07999999821186066,0.20999999344348907],"min":[-0.8500000238418579,-0.07999999821186066,-0.20999999344348907],"normalized":false,"type":"VEC3"}],"asset":{"generator":"Godot Engine v4.7.stable.official@5b4e0cb0fd279832bbdd69fed5354d4e5ad26f88","version":"2.0"},"bufferViews":[{"buffer":0,"byteLength":288,"byteStride":12,"target":34962},{"buffer":0,"byteLength":384,"byteOffset":288,"byteStride":16,"target":34962},{"buffer":0,"byteLength":288,"byteOffset":672,"byteStride":12,"target":34962},{"buffer":0,"byteLength":192,"byteOffset":960,"byteStride":8,"target":34962},{"buffer":0,"byteLength":36,"byteOffset":1152,"target":34963},{"buffer":0,"byteLength":288,"byteOffset":1188,"byteStride":12,"target":34962},{"buffer":0,"byteLength":288,"byteOffset":1476,"byteStride":12,"target":34962},{"buffer":0,"byteLength":240,"byteOffset":1764,"byteStride":12,"target":34962},{"buffer":0,"byteLength":320,"byteOffset":2004,"byteStride":16,"target":34962},{"buffer":0,"byteLength":240,"byteOffset":2324,"byteStride":12,"target":34962},{"buffer":0,"byteLength":160,"byteOffset":2564,"byteStride":8,"target":34962},{"buffer":0,"byteLength":24,"byteOffset":2724,"target":34963},{"buffer":0,"byteLength":288,"byteOffset":2748,"byteStride":12,"target":34962},{"buffer":0,"byteLength":924,"byteOffset":3036,"byteStride":12,"target":34962},{"buffer":0,"byteLength":1232,"byteOffset":3960,"byteStride":16,"target":34962},{"buffer":0,"byteLength":924,"byteOffset":5192,"byteStride":12,"target":34962},{"buffer":0,"byteLength":616,"byteOffset":6116,"byteStride":8,"target":34962},{"buffer":0,"byteLength":252,"byteOffset":6732,"target":34963},{"buffer":0,"byteLength":924,"byteOffset":6984,"byteStride":12,"target":34962},{"buffer":0,"byteLength":924,"byteOffset":7908,"byteStride":12,"target":34962},{"buffer":0,"byteLength":288,"byteOffset":8832,"byteStride":12,"target":34962},{"buffer":0,"byteLength":924,"byteOffset":9120,"byteStride":12,"target":34962},{"buffer":0,"byteLength":924,"byteOffset":10044,"byteStride":12,"target":34962},{"buffer":0,"byteLength":288,"byteOffset":10968,"byteStride":12,"target":34962},{"buffer":0,"byteLength":288,"byteOffset":11256,"byteStride":12,"target":34962},{"buffer":0,"byteLength":288,"byteOffset":11544,"byteStride":12,"target":34962},{"buffer":0,"byteLength":288,"byteOffset":11832,"byteStride":12,"target":34962},{"buffer":0,"byteLength":288,"byteOffset":12120,"byteStride":12,"target":34962},{"buffer":0,"byteLength":288,"byteOffset":12408,"byteStride":12,"target":34962},{"buffer":0,"byteLength":288,"byteOffset":12696,"byteStride":12,"target":34962},{"buffer":0,"byteLength":288,"byteOffset":12984,"byteStride":12,"target":34962},{"buffer":0,"byteLength":288,"byteOffset":13272,"byteStride":12,"target":34962},{"buffer":0,"byteLength":288,"byteOffset":13560,"byteStride":12,"target":34962},{"buffer":0,"byteLength":288,"byteOffset":13848,"byteStride":12,"target":34962},{"buffer":0,"byteLength":288,"byteOffset":14136,"byteStride":12,"target":34962},{"buffer":0,"byteLength":288,"byteOffset":14424,"byteStride":12,"target":34962}],"buffers":[{"byteLength":14712,"uri":"civic_castle0.bin"}],"extensionsUsed":["GODOT_single_root"],"materials":[{"pbrMetallicRoughness":{"baseColorFactor":[0.6104955673217773,0.5209956169128418,0.3613067865371704,1.0],"metallicFactor":0.0,"roughnessFactor":0.8999999761581421}},{"pbrMetallicRoughness":{"baseColorFactor":[0.7454042434692383,0.6307570934295654,0.44520115852355957,1.0],"metallicFactor":0.0,"roughnessFactor":0.8999999761581421}},{"pbrMetallicRoughness":{"baseColorFactor":[0.05951124057173729,0.14702725410461426,0.1384316086769104,1.0],"metallicFactor":0.0,"roughnessFactor":0.8999999761581421}},{"pbrMetallicRoughness":{"baseColorFactor":[0.1144353598356247,0.05780543386936188,0.0284260381013155,1.0],"metallicFactor":0.0,"roughnessFactor":0.8999999761581421}}],"meshes":[{"primitives":[{"attributes":{"NORMAL":2,"POSITION":0,"TANGENT":1,"TEXCOORD_0":3},"indices":4,"material":0,"mode":4}]},{"primitives":[{"attributes":{"NORMAL":2,"POSITION":5,"TANGENT":1,"TEXCOORD_0":3},"indices":4,"material":0,"mode":4}]},{"primitives":[{"attributes":{"NORMAL":2,"POSITION":6,"TANGENT":1,"TEXCOORD_0":3},"indices":4,"material":1,"mode":4}]},{"primitives":[{"attributes":{"NORMAL":9,"POSITION":7,"TANGENT":8,"TEXCOORD_0":10},"indices":11,"material":2,"mode":4}]},{"primitives":[{"attributes":{"NORMAL":2,"POSITION":12,"TANGENT":1,"TEXCOORD_0":3},"indices":4,"material":2,"mode":4}]},{"primitives":[{"attributes":{"NORMAL":15,"POSITION":13,"TANGENT":14,"TEXCOORD_0":16},"indices":17,"material":0,"mode":4}]},{"primitives":[{"attributes":{"NORMAL":19,"POSITION":18,"TANGENT":14,"TEXCOORD_0":16},"indices":17,"material":0,"mode":4}]},{"primitives":[{"attributes":{"NORMAL":2,"POSITION":20,"TANGENT":1,"TEXCOORD_0":3},"indices":4,"material":0,"mode":4}]},{"primitives":[{"attributes":{"NORMAL":2,"POSITION":20,"TANGENT":1,"TEXCOORD_0":3},"indices":4,"material":0,"mode":4}]},{"primitives":[{"attributes":{"NORMAL":2,"POSITION":20,"TANGENT":1,"TEXCOORD_0":3},"indices":4,"material":0,"mode":4}]},{"primitives":[{"attributes":{"NORMAL":2,"POSITION":20,"TANGENT":1,"TEXCOORD_0":3},"indices":4,"material":0,"mode":4}]},{"primitives":[{"attributes":{"NORMAL":2,"POSITION":20,"TANGENT":1,"TEXCOORD_0":3},"indices":4,"material":0,"mode":4}]},{"primitives":[{"attributes":{"NORMAL":2,"POSITION":20,"TANGENT":1,"TEXCOORD_0":3},"indices":4,"material":0,"mode":4}]},{"primitives":[{"attributes":{"NORMAL":22,"POSITION":21,"TANGENT":14,"TEXCOORD_0":16},"indices":17,"material":2,"mode":4}]},{"primitives":[{"attributes":{"NORMAL":2,"POSITION":23,"TANGENT":1,"TEXCOORD_0":3},"indices":4,"material":3,"mode":4}]},{"primitives":[{"attributes":{"NORMAL":2,"POSITION":24,"TANGENT":1,"TEXCOORD_0":3},"indices":4,"material":3,"mode":4}]},{"primitives":[{"attributes":{"NORMAL":2,"POSITION":24,"TANGENT":1,"TEXCOORD_0":3},"indices":4,"material":3,"mode":4}]},{"primitives":[{"attributes":{"NORMAL":2,"POSITION":24,"TANGENT":1,"TEXCOORD_0":3},"indices":4,"material":3,"mode":4}]},{"primitives":[{"attributes":{"NORMAL":15,"POSITION":13,"TANGENT":14,"TEXCOORD_0":16},"indices":17,"material":0,"mode":4}]},{"primitives":[{"attributes":{"NORMAL":19,"POSITION":18,"TANGENT":14,"TEXCOORD_0":16},"indices":17,"material":0,"mode":4}]},{"primitives":[{"attributes":{"NORMAL":2,"POSITION":20,"TANGENT":1,"TEXCOORD_0":3},"indices":4,"material":0,"mode":4}]},{"primitives":[{"attributes":{"NORMAL":2,"POSITION":20,"TANGENT":1,"TEXCOORD_0":3},"indices":4,"material":0,"mode":4}]},{"primitives":[{"attributes":{"NORMAL":2,"POSITION":20,"TANGENT":1,"TEXCOORD_0":3},"indices":4,"material":0,"mode":4}]},{"primitives":[{"attributes":{"NORMAL":2,"POSITION":20,"TANGENT":1,"TEXCOORD_0":3},"indices":4,"material":0,"mode":4}]},{"primitives":[{"attributes":{"NORMAL":2,"POSITION":20,"TANGENT":1,"TEXCOORD_0":3},"indices":4,"material":0,"mode":4}]},{"primitives":[{"attributes":{"NORMAL":2,"POSITION":20,"TANGENT":1,"TEXCOORD_0":3},"indices":4,"material":0,"mode":4}]},{"primitives":[{"attributes":{"NORMAL":22,"POSITION":21,"TANGENT":14,"TEXCOORD_0":16},"indices":17,"material":2,"mode":4}]},{"primitives":[{"attributes":{"NORMAL":2,"POSITION":23,"TANGENT":1,"TEXCOORD_0":3},"indices":4,"material":3,"mode":4}]},{"primitives":[{"attributes":{"NORMAL":2,"POSITION":24,"TANGENT":1,"TEXCOORD_0":3},"indices":4,"material":3,"mode":4}]},{"primitives":[{"attributes":{"NORMAL":2,"POSITION":24,"TANGENT":1,"TEXCOORD_0":3},"indices":4,"material":3,"mode":4}]},{"primitives":[{"attributes":{"NORMAL":2,"POSITION":24,"TANGENT":1,"TEXCOORD_0":3},"indices":4,"material":3,"mode":4}]},{"primitives":[{"attributes":{"NORMAL":15,"POSITION":13,"TANGENT":14,"TEXCOORD_0":16},"indices":17,"material":0,"mode":4}]},{"primitives":[{"attributes":{"NORMAL":19,"POSITION":18,"TANGENT":14,"TEXCOORD_0":16},"indices":17,"material":0,"mode":4}]},{"primitives":[{"attributes":{"NORMAL":2,"POSITION":20,"TANGENT":1,"TEXCOORD_0":3},"indices":4,"material":0,"mode":4}]},{"primitives":[{"attributes":{"NORMAL":2,"POSITION":20,"TANGENT":1,"TEXCOORD_0":3},"indices":4,"material":0,"mode":4}]},{"primitives":[{"attributes":{"NORMAL":2,"POSITION":20,"TANGENT":1,"TEXCOORD_0":3},"indices":4,"material":0,"mode":4}]},{"primitives":[{"attributes":{"NORMAL":2,"POSITION":20,"TANGENT":1,"TEXCOORD_0":3},"indices":4,"material":0,"mode":4}]},{"primitives":[{"attributes":{"NORMAL":2,"POSITION":20,"TANGENT":1,"TEXCOORD_0":3},"indices":4,"material":0,"mode":4}]},{"primitives":[{"attributes":{"NORMAL":2,"POSITION":20,"TANGENT":1,"TEXCOORD_0":3},"indices":4,"material":0,"mode":4}]},{"primitives":[{"attributes":{"NORMAL":22,"POSITION":21,"TANGENT":14,"TEXCOORD_0":16},"indices":17,"material":2,"mode":4}]},{"primitives":[{"attributes":{"NORMAL":2,"POSITION":23,"TANGENT":1,"TEXCOORD_0":3},"indices":4,"material":3,"mode":4}]},{"primitives":[{"attributes":{"NORMAL":2,"POSITION":24,"TANGENT":1,"TEXCOORD_0":3},"indices":4,"material":3,"mode":4}]},{"primitives":[{"attributes":{"NORMAL":2,"POSITION":24,"TANGENT":1,"TEXCOORD_0":3},"indices":4,"material":3,"mode":4}]},{"primitives":[{"attributes":{"NORMAL":2,"POSITION":24,"TANGENT":1,"TEXCOORD_0":3},"indices":4,"material":3,"mode":4}]},{"primitives":[{"attributes":{"NORMAL":15,"POSITION":13,"TANGENT":14,"TEXCOORD_0":16},"indices":17,"material":0,"mode":4}]},{"primitives":[{"attributes":{"NORMAL":19,"POSITION":18,"TANGENT":14,"TEXCOORD_0":16},"indices":17,"material":0,"mode":4}]},{"primitives":[{"attributes":{"NORMAL":2,"POSITION":20,"TANGENT":1,"TEXCOORD_0":3},"indices":4,"material":0,"mode":4}]},{"primitives":[{"attributes":{"NORMAL":2,"POSITION":20,"TANGENT":1,"TEXCOORD_0":3},"indices":4,"material":0,"mode":4}]},{"primitives":[{"attributes":{"NORMAL":2,"POSITION":20,"TANGENT":1,"TEXCOORD_0":3},"indices":4,"material":0,"mode":4}]},{"primitives":[{"attributes":{"NORMAL":2,"POSITION":20,"TANGENT":1,"TEXCOORD_0":3},"indices":4,"material":0,"mode":4}]},{"primitives":[{"attributes":{"NORMAL":2,"POSITION":20,"TANGENT":1,"TEXCOORD_0":3},"indices":4,"material":0,"mode":4}]},{"primitives":[{"attributes":{"NORMAL":2,"POSITION":20,"TANGENT":1,"TEXCOORD_0":3},"indices":4,"material":0,"mode":4}]},{"primitives":[{"attributes":{"NORMAL":22,"POSITION":21,"TANGENT":14,"TEXCOORD_0":16},"indices":17,"material":2,"mode":4}]},{"primitives":[{"attributes":{"NORMAL":2,"POSITION":23,"TANGENT":1,"TEXCOORD_0":3},"indices":4,"material":3,"mode":4}]},{"primitives":[{"attributes":{"NORMAL":2,"POSITION":24,"TANGENT":1,"TEXCOORD_0":3},"indices":4,"material":3,"mode":4}]},{"primitives":[{"attributes":{"NORMAL":2,"POSITION":24,"TANGENT":1,"TEXCOORD_0":3},"indices":4,"material":3,"mode":4}]},{"primitives":[{"attributes":{"NORMAL":2,"POSITION":24,"TANGENT":1,"TEXCOORD_0":3},"indices":4,"material":3,"mode":4}]},{"primitives":[{"attributes":{"NORMAL":2,"POSITION":25,"TANGENT":1,"TEXCOORD_0":3},"indices":4,"material":0,"mode":4}]},{"primitives":[{"attributes":{"NORMAL":2,"POSITION":25,"TANGENT":1,"TEXCOORD_0":3},"indices":4,"material":0,"mode":4}]},{"primitives":[{"attributes":{"NORMAL":2,"POSITION":25,"TANGENT":1,"TEXCOORD_0":3},"indices":4,"material":0,"mode":4}]},{"primitives":[{"attributes":{"NORMAL":2,"POSITION":25,"TANGENT":1,"TEXCOORD_0":3},"indices":4,"material":0,"mode":4}]},{"primitives":[{"attributes":{"NORMAL":2,"POSITION":25,"TANGENT":1,"TEXCOORD_0":3},"indices":4,"material":0,"mode":4}]},{"primitives":[{"attributes":{"NORMAL":2,"POSITION":25,"TANGENT":1,"TEXCOORD_0":3},"indices":4,"material":0,"mode":4}]},{"primitives":[{"attributes":{"NORMAL":2,"POSITION":25,"TANGENT":1,"TEXCOORD_0":3},"indices":4,"material":0,"mode":4}]},{"primitives":[{"attributes":{"NORMAL":2,"POSITION":25,"TANGENT":1,"TEXCOORD_0":3},"indices":4,"material":0,"mode":4}]},{"primitives":[{"attributes":{"NORMAL":2,"POSITION":25,"TANGENT":1,"TEXCOORD_0":3},"indices":4,"material":0,"mode":4}]},{"primitives":[{"attributes":{"NORMAL":2,"POSITION":25,"TANGENT":1,"TEXCOORD_0":3},"indices":4,"material":0,"mode":4}]},{"primitives":[{"attributes":{"NORMAL":2,"POSITION":25,"TANGENT":1,"TEXCOORD_0":3},"indices":4,"material":0,"mode":4}]},{"primitives":[{"attributes":{"NORMAL":2,"POSITION":25,"TANGENT":1,"TEXCOORD_0":3},"indices":4,"material":0,"mode":4}]},{"primitives":[{"attributes":{"NORMAL":2,"POSITION":25,"TANGENT":1,"TEXCOORD_0":3},"indices":4,"material":0,"mode":4}]},{"primitives":[{"attributes":{"NORMAL":2,"POSITION":25,"TANGENT":1,"TEXCOORD_0":3},"indices":4,"material":0,"mode":4}]},{"primitives":[{"attributes":{"NORMAL":2,"POSITION":25,"TANGENT":1,"TEXCOORD_0":3},"indices":4,"material":0,"mode":4}]},{"primitives":[{"attributes":{"NORMAL":2,"POSITION":25,"TANGENT":1,"TEXCOORD_0":3},"indices":4,"material":0,"mode":4}]},{"primitives":[{"attributes":{"NORMAL":2,"POSITION":25,"TANGENT":1,"TEXCOORD_0":3},"indices":4,"material":0,"mode":4}]},{"primitives":[{"attributes":{"NORMAL":2,"POSITION":25,"TANGENT":1,"TEXCOORD_0":3},"indices":4,"material":0,"mode":4}]},{"primitives":[{"attributes":{"NORMAL":2,"POSITION":25,"TANGENT":1,"TEXCOORD_0":3},"indices":4,"material":0,"mode":4}]},{"primitives":[{"attributes":{"NORMAL":2,"POSITION":25,"TANGENT":1,"TEXCOORD_0":3},"indices":4,"material":0,"mode":4}]},{"primitives":[{"attributes":{"NORMAL":2,"POSITION":25,"TANGENT":1,"TEXCOORD_0":3},"indices":4,"material":0,"mode":4}]},{"primitives":[{"attributes":{"NORMAL":2,"POSITION":25,"TANGENT":1,"TEXCOORD_0":3},"indices":4,"material":0,"mode":4}]},{"primitives":[{"attributes":{"NORMAL":2,"POSITION":25,"TANGENT":1,"TEXCOORD_0":3},"indices":4,"material":0,"mode":4}]},{"primitives":[{"attributes":{"NORMAL":2,"POSITION":25,"TANGENT":1,"TEXCOORD_0":3},"indices":4,"material":0,"mode":4}]},{"primitives":[{"attributes":{"NORMAL":2,"POSITION":26,"TANGENT":1,"TEXCOORD_0":3},"indices":4,"material":3,"mode":4}]},{"primitives":[{"attributes":{"NORMAL":2,"POSITION":27,"TANGENT":1,"TEXCOORD_0":3},"indices":4,"material":3,"mode":4}]},{"primitives":[{"attributes":{"NORMAL":2,"POSITION":28,"TANGENT":1,"TEXCOORD_0":3},"indices":4,"material":3,"mode":4}]},{"primitives":[{"attributes":{"NORMAL":2,"POSITION":28,"TANGENT":1,"TEXCOORD_0":3},"indices":4,"material":3,"mode":4}]},{"primitives":[{"attributes":{"NORMAL":2,"POSITION":28,"TANGENT":1,"TEXCOORD_0":3},"indices":4,"material":3,"mode":4}]},{"primitives":[{"attributes":{"NORMAL":2,"POSITION":28,"TANGENT":1,"TEXCOORD_0":3},"indices":4,"material":3,"mode":4}]},{"primitives":[{"attributes":{"NORMAL":2,"POSITION":29,"TANGENT":1,"TEXCOORD_0":3},"indices":4,"material":3,"mode":4}]},{"primitives":[{"attributes":{"NORMAL":2,"POSITION":29,"TANGENT":1,"TEXCOORD_0":3},"indices":4,"material":3,"mode":4}]},{"primitives":[{"attributes":{"NORMAL":2,"POSITION":30,"TANGENT":1,"TEXCOORD_0":3},"indices":4,"material":3,"mode":4}]},{"primitives":[{"attributes":{"NORMAL":2,"POSITION":30,"TANGENT":1,"TEXCOORD_0":3},"indices":4,"material":3,"mode":4}]},{"primitives":[{"attributes":{"NORMAL":2,"POSITION":30,"TANGENT":1,"TEXCOORD_0":3},"indices":4,"material":3,"mode":4}]},{"primitives":[{"attributes":{"NORMAL":2,"POSITION":30,"TANGENT":1,"TEXCOORD_0":3},"indices":4,"material":3,"mode":4}]},{"primitives":[{"attributes":{"NORMAL":2,"POSITION":30,"TANGENT":1,"TEXCOORD_0":3},"indices":4,"material":3,"mode":4}]},{"primitives":[{"attributes":{"NORMAL":2,"POSITION":30,"TANGENT":1,"TEXCOORD_0":3},"indices":4,"material":3,"mode":4}]},{"primitives":[{"attributes":{"NORMAL":2,"POSITION":30,"TANGENT":1,"TEXCOORD_0":3},"indices":4,"material":3,"mode":4}]},{"primitives":[{"attributes":{"NORMAL":2,"POSITION":30,"TANGENT":1,"TEXCOORD_0":3},"indices":4,"material":3,"mode":4}]},{"primitives":[{"attributes":{"NORMAL":2,"POSITION":30,"TANGENT":1,"TEXCOORD_0":3},"indices":4,"material":3,"mode":4}]},{"primitives":[{"attributes":{"NORMAL":2,"POSITION":30,"TANGENT":1,"TEXCOORD_0":3},"indices":4,"material":3,"mode":4}]},{"primitives":[{"attributes":{"NORMAL":2,"POSITION":30,"TANGENT":1,"TEXCOORD_0":3},"indices":4,"material":3,"mode":4}]},{"primitives":[{"attributes":{"NORMAL":2,"POSITION":30,"TANGENT":1,"TEXCOORD_0":3},"indices":4,"material":3,"mode":4}]},{"primitives":[{"attributes":{"NORMAL":2,"POSITION":30,"TANGENT":1,"TEXCOORD_0":3},"indices":4,"material":3,"mode":4}]},{"primitives":[{"attributes":{"NORMAL":2,"POSITION":31,"TANGENT":1,"TEXCOORD_0":3},"indices":4,"material":3,"mode":4}]},{"primitives":[{"attributes":{"NORMAL":2,"POSITION":31,"TANGENT":1,"TEXCOORD_0":3},"indices":4,"material":3,"mode":4}]},{"primitives":[{"attributes":{"NORMAL":2,"POSITION":31,"TANGENT":1,"TEXCOORD_0":3},"indices":4,"material":3,"mode":4}]},{"primitives":[{"attributes":{"NORMAL":2,"POSITION":31,"TANGENT":1,"TEXCOORD_0":3},"indices":4,"material":3,"mode":4}]},{"primitives":[{"attributes":{"NORMAL":2,"POSITION":32,"TANGENT":1,"TEXCOORD_0":3},"indices":4,"material":3,"mode":4}]},{"primitives":[{"attributes":{"NORMAL":2,"POSITION":33,"TANGENT":1,"TEXCOORD_0":3},"indices":4,"material":3,"mode":4}]},{"primitives":[{"attributes":{"NORMAL":2,"POSITION":34,"TANGENT":1,"TEXCOORD_0":3},"indices":4,"material":0,"mode":4}]},{"primitives":[{"attributes":{"NORMAL":2,"POSITION":35,"TANGENT":1,"TEXCOORD_0":3},"indices":4,"material":0,"mode":4}]}],"nodes":[{"children":[1,2,3,4,5,6,7,8,9,10,11,12,13,14,15,16,17,18,19,20,21,22,23,24,25,26,27,28,29,30,31,32,33,34,35,36,37,38,39,40,41,42,43,44,45,46,47,48,49,50,51,52,53,54,55,56,57,58,59,60,61,62,63,64,65,66,67,68,69,70,71,72,73,74,75,76,77,78,79,80,81,82,83,84,85,86,87,88,89,90,91,92,93,94,95,96,97,98,99,100,101,102,103,104,105,106,107,108,109,110],"name":"CivicCastle"},{"mesh":0,"name":"CivicPlinth","translation":[0.0,0.17000000178813934,0.0]},{"mesh":1,"name":"CivicWall_Keep","translation":[0.0,2.119999885559082,-0.10000000149011612]},{"mesh":2,"name":"CivicPlaster_Upper","translation":[0.0,4.820000171661377,-0.11999999731779099]},{"mesh":3,"name":"CivicRoof_Hall","translation":[0.0,6.71999979019165,-0.11999999731779099]},{"mesh":4,"name":"CivicRoof_RidgeCap","translation":[0.0,7.519999980926514,-0.11999999731779099]},{"mesh":5,"name":"CivicWall_TowerFL","translation":[-2.9000000953674316,2.7750000953674316,2.4800000190734863]},{"mesh":6,"name":"CivicWall_TowerFLRing","translation":[-2.9000000953674316,5.650000095367432,2.4800000190734863]},{"mesh":7,"name":"CivicCrenel_TowerFL_0","translation":[-2.080000162124634,5.909999847412109,2.4800000190734863]},{"mesh":8,"name":"CivicCrenel_TowerFL_1","translation":[-2.490000009536743,5.909999847412109,3.190140724182129]},{"mesh":9,"name":"CivicCrenel_TowerFL_2","translation":[-3.31000018119812,5.909999847412109,3.190140724182129]},{"mesh":10,"name":"CivicCrenel_TowerFL_3","translation":[-3.7200000286102295,5.909999847412109,2.4800000190734863]},{"mesh":11,"name":"CivicCrenel_TowerFL_4","translation":[-3.31000018119812,5.909999847412109,1.7698591947555542]},{"mesh":12,"name":"CivicCrenel_TowerFL_5","translation":[-2.490000009536743,5.909999847412109,1.7698591947555542]},{"mesh":13,"name":"CivicRoof_ConeFL","translation":[-2.9000000953674316,6.599999904632568,2.4800000190734863]},{"mesh":14,"name":"CivicTimber_FinialFL","translation":[-2.9000000953674316,7.570000171661377,2.4800000190734863]},{"mesh":15,"name":"CivicWindow_TowerFL_0","translation":[-2.1447300910949707,2.3499999046325684,2.799323081970215]},{"mesh":16,"name":"CivicWindow_TowerFL_1","translation":[-3.5541770458221436,3.200000047683716,2.974421501159668]},{"mesh":17,"name":"CivicWindow_TowerFL_2","translation":[-3.0010931491851807,4.050000190734863,1.6662554740905762]},{"mesh":18,"name":"CivicWall_TowerFR","translation":[2.9000000953674316,2.7750000953674316,2.4800000190734863]},{"mesh":19,"name":"CivicWall_TowerFRRing","translation":[2.9000000953674316,5.650000095367432,2.4800000190734863]},{"mesh":20,"name":"CivicCrenel_TowerFR_0","translation":[3.7200000286102295,5.909999847412109,2.4800000190734863]},{"mesh":21,"name":"CivicCrenel_TowerFR_1","translation":[3.31000018119812,5.909999847412109,3.190140724182129]},{"mesh":22,"name":"CivicCrenel_TowerFR_2","translation":[2.490000009536743,5.909999847412109,3.190140724182129]},{"mesh":23,"name":"CivicCrenel_TowerFR_3","translation":[2.080000162124634,5.909999847412109,2.4800000190734863]},{"mesh":24,"name":"CivicCrenel_TowerFR_4","translation":[2.490000009536743,5.909999847412109,1.7698591947555542]},{"mesh":25,"name":"CivicCrenel_TowerFR_5","translation":[3.31000018119812,5.909999847412109,1.7698591947555542]},{"mesh":26,"name":"CivicRoof_ConeFR","translation":[2.9000000953674316,6.599999904632568,2.4800000190734863]},{"mesh":27,"name":"CivicTimber_FinialFR","translation":[2.9000000953674316,7.570000171661377,2.4800000190734863]},{"mesh":28,"name":"CivicWindow_TowerFR_0","translation":[3.6552700996398926,2.3499999046325684,2.799323081970215]},{"mesh":29,"name":"CivicWindow_TowerFR_1","translation":[2.2458231449127197,3.200000047683716,2.974421501159668]},{"mesh":30,"name":"CivicWindow_TowerFR_2","translation":[2.7989070415496826,4.050000190734863,1.6662554740905762]},{"mesh":31,"name":"CivicWall_TowerBL","translation":[-2.9000000953674316,2.7750000953674316,-2.380000114440918]},{"mesh":32,"name":"CivicWall_TowerBLRing","translation":[-2.9000000953674316,5.650000095367432,-2.380000114440918]},{"mesh":33,"name":"CivicCrenel_TowerBL_0","translation":[-2.080000162124634,5.909999847412109,-2.380000114440918]},{"mesh":34,"name":"CivicCrenel_TowerBL_1","translation":[-2.490000009536743,5.909999847412109,-1.6698592901229858]},{"mesh":35,"name":"CivicCrenel_TowerBL_2","translation":[-3.31000018119812,5.909999847412109,-1.6698592901229858]},{"mesh":36,"name":"CivicCrenel_TowerBL_3","translation":[-3.7200000286102295,5.909999847412109,-2.380000114440918]},{"mesh":37,"name":"CivicCrenel_TowerBL_4","translation":[-3.31000018119812,5.909999847412109,-3.0901408195495605]},{"mesh":38,"name":"CivicCrenel_TowerBL_5","translation":[-2.490000009536743,5.909999847412109,-3.0901408195495605]},{"mesh":39,"name":"CivicRoof_ConeBL","translation":[-2.9000000953674316,6.599999904632568,-2.380000114440918]},{"mesh":40,"name":"CivicTimber_FinialBL","translation":[-2.9000000953674316,7.570000171661377,-2.380000114440918]},{"mesh":41,"name":"CivicWindow_TowerBL_0","translation":[-2.1447300910949707,2.3499999046325684,-2.0606770515441895]},{"mesh":42,"name":"CivicWindow_TowerBL_1","translation":[-3.5541770458221436,3.200000047683716,-1.8855786323547363]},{"mesh":43,"name":"CivicWindow_TowerBL_2","translation":[-3.0010931491851807,4.050000190734863,-3.193744659423828]},{"mesh":44,"name":"CivicWall_TowerBR","translation":[2.9000000953674316,2.7750000953674316,-2.380000114440918]},{"mesh":45,"name":"CivicWall_TowerBRRing","translation":[2.9000000953674316,5.650000095367432,-2.380000114440918]},{"mesh":46,"name":"CivicCrenel_TowerBR_0","translation":[3.7200000286102295,5.909999847412109,-2.380000114440918]},{"mesh":47,"name":"CivicCrenel_TowerBR_1","translation":[3.31000018119812,5.909999847412109,-1.6698592901229858]},{"mesh":48,"name":"CivicCrenel_TowerBR_2","translation":[2.490000009536743,5.909999847412109,-1.6698592901229858]},{"mesh":49,"name":"CivicCrenel_TowerBR_3","translation":[2.080000162124634,5.909999847412109,-2.380000114440918]},{"mesh":50,"name":"CivicCrenel_TowerBR_4","translation":[2.490000009536743,5.909999847412109,-3.0901408195495605]},{"mesh":51,"name":"CivicCrenel_TowerBR_5","translation":[3.31000018119812,5.909999847412109,-3.0901408195495605]},{"mesh":52,"name":"CivicRoof_ConeBR","translation":[2.9000000953674316,6.599999904632568,-2.380000114440918]},{"mesh":53,"name":"CivicTimber_FinialBR","translation":[2.9000000953674316,7.570000171661377,-2.380000114440918]},{"mesh":54,"name":"CivicWindow_TowerBR_0","translation":[3.6552700996398926,2.3499999046325684,-2.0606770515441895]},{"mesh":55,"name":"CivicWindow_TowerBR_1","translation":[2.2458231449127197,3.200000047683716,-1.8855786323547363]},{"mesh":56,"name":"CivicWindow_TowerBR_2","translation":[2.7989070415496826,4.050000190734863,-3.193744659423828]},{"mesh":57,"name":"CivicCrenel_Front_0","translation":[-2.549999952316284,3.950000047683716,2.2799999713897705]},{"mesh":58,"name":"CivicCrenel_Front_1","translation":[-1.7000000476837158,3.950000047683716,2.2799999713897705]},{"mesh":59,"name":"CivicCrenel_Front_2","translation":[-0.8500000238418579,3.950000047683716,2.2799999713897705]},{"mesh":60,"name":"CivicCrenel_Front_3","translation":[0.0,3.950000047683716,2.2799999713897705]},{"mesh":61,"name":"CivicCrenel_Front_4","translation":[0.8500000238418579,3.950000047683716,2.2799999713897705]},{"mesh":62,"name":"CivicCrenel_Front_5","translation":[1.7000000476837158,3.950000047683716,2.2799999713897705]},{"mesh":63,"name":"CivicCrenel_Front_6","translation":[2.549999952316284,3.950000047683716,2.2799999713897705]},{"mesh":64,"name":"CivicCrenel_Back_0","translation":[-2.549999952316284,3.950000047683716,-2.4800000190734863]},{"mesh":65,"name":"CivicCrenel_Back_1","translation":[-1.7000000476837158,3.950000047683716,-2.4800000190734863]},{"mesh":66,"name":"CivicCrenel_Back_2","translation":[-0.8500000238418579,3.950000047683716,-2.4800000190734863]},{"mesh":67,"name":"CivicCrenel_Back_3","translation":[0.0,3.950000047683716,-2.4800000190734863]},{"mesh":68,"name":"CivicCrenel_Back_4","translation":[0.8500000238418579,3.950000047683716,-2.4800000190734863]},{"mesh":69,"name":"CivicCrenel_Back_5","translation":[1.7000000476837158,3.950000047683716,-2.4800000190734863]},{"mesh":70,"name":"CivicCrenel_Back_6","translation":[2.549999952316284,3.950000047683716,-2.4800000190734863]},{"mesh":71,"name":"CivicCrenel_West_0","translation":[-2.7799999713897705,3.950000047683716,-2.299999952316284]},{"mesh":72,"name":"CivicCrenel_West_1","translation":[-2.7799999713897705,3.950000047683716,-1.2000000476837158]},{"mesh":73,"name":"CivicCrenel_West_2","translation":[-2.7799999713897705,3.950000047683716,-0.10000000149011612]},{"mesh":74,"name":"CivicCrenel_West_3","translation":[-2.7799999713897705,3.950000047683716,1.0]},{"mesh":75,"name":"CivicCrenel_West_4","translation":[-2.7799999713897705,3.950000047683716,2.1000001430511475]},{"mesh":76,"name":"CivicCrenel_East_0","translation":[2.7799999713897705,3.950000047683716,-2.299999952316284]},{"mesh":77,"name":"CivicCrenel_East_1","translation":[2.7799999713897705,3.950000047683716,-1.2000000476837158]},{"mesh":78,"name":"CivicCrenel_East_2","translation":[2.7799999713897705,3.950000047683716,-0.10000000149011612]},{"mesh":79,"name":"CivicCrenel_East_3","translation":[2.7799999713897705,3.950000047683716,1.0]},{"mesh":80,"name":"CivicCrenel_East_4","translation":[2.7799999713897705,3.950000047683716,2.1000001430511475]},{"mesh":81,"name":"CivicTimber_Lintel","translation":[0.0,2.2799999713897705,2.380000114440918]},{"mesh":82,"name":"CivicDoor","translation":[0.0,1.1799999475479126,2.4200000762939453]},{"mesh":83,"name":"CivicDoor_Plank_0","translation":[-0.41999998688697815,1.1799999475479126,2.5]},{"mesh":84,"name":"CivicDoor_Plank_1","translation":[-0.14000000059604645,1.1799999475479126,2.5]},{"mesh":85,"name":"CivicDoor_Plank_2","translation":[0.14000000059604645,1.1799999475479126,2.5]},{"mesh":86,"name":"CivicDoor_Plank_3","translation":[0.41999998688697815,1.1799999475479126,2.5]},{"mesh":87,"name":"CivicTimber_DoorFrameL","translation":[-0.6800000071525574,1.2200000286102295,2.4000000953674316]},{"mesh":88,"name":"CivicTimber_DoorFrameR","translation":[0.6800000071525574,1.2200000286102295,2.4000000953674316]},{"mesh":89,"name":"CivicWindow_0","translation":[-1.5499999523162842,2.549999952316284,2.319999933242798]},{"mesh":90,"name":"CivicWindow_1","translation":[1.5499999523162842,2.549999952316284,2.319999933242798]},{"mesh":91,"name":"CivicWindow_2","translation":[-1.5499999523162842,3.549999952316284,2.319999933242798]},{"mesh":92,"name":"CivicWindow_3","translation":[1.5499999523162842,3.549999952316284,2.319999933242798]},{"mesh":93,"name":"CivicWindow_4","translation":[-2.819999933242798,2.4000000953674316,0.550000011920929]},{"mesh":94,"name":"CivicWindow_5","translation":[-2.819999933242798,3.3499999046325684,-0.550000011920929]},{"mesh":95,"name":"CivicWindow_6","translation":[2.819999933242798,2.4000000953674316,0.550000011920929]},{"mesh":96,"name":"CivicWindow_7","translation":[2.819999933242798,3.3499999046325684,-0.550000011920929]},{"mesh":97,"name":"CivicWindow_8","translation":[-1.100000023841858,5.150000095367432,1.7200000286102295]},{"mesh":98,"name":"CivicWindow_9","translation":[1.100000023841858,5.150000095367432,1.7200000286102295]},{"mesh":99,"name":"CivicWindow_10","translation":[0.0,2.700000047683716,-2.4800000190734863]},{"mesh":100,"name":"CivicWindow_11","translation":[-1.399999976158142,3.5,-2.4800000190734863]},{"mesh":101,"name":"CivicWindow_12","translation":[1.399999976158142,3.5,-2.4800000190734863]},{"mesh":102,"name":"CivicTimber_Corner_0","translation":[-2.7200000286102295,2.0999999046325684,-2.2200000286102295]},{"mesh":103,"name":"CivicTimber_Corner_1","translation":[-2.7200000286102295,2.0999999046325684,2.2200000286102295]},{"mesh":104,"name":"CivicTimber_Corner_2","translation":[2.7200000286102295,2.0999999046325684,-2.2200000286102295]},{"mesh":105,"name":"CivicTimber_Corner_3","translation":[2.7200000286102295,2.0999999046325684,2.2200000286102295]},{"mesh":106,"name":"CivicTimber_Plate","translation":[0.0,3.549999952316284,2.3399999141693115]},{"mesh":107,"name":"CivicTimber_Fascia","translation":[0.0,5.78000020980835,1.7799999713897705]},{"mesh":108,"name":"CivicPlinth_Stair","translation":[0.0,0.10000000149011612,3.049999952316284]},{"mesh":109,"name":"CivicPlinth_Step","translation":[0.0,0.2199999988079071,3.380000114440918]}],"scene":0,"scenes":[{"nodes":[0]}]}